<svg width="43" height="42" viewBox="0 0 43 42" fill="none" xmlns="http://www.w3.org/2000/svg">
<path d="M5.69 0C2.93 0 0.690002 2.24 0.690002 5V37C0.690002 39.76 2.93 42 5.69 42H37.69C40.45 42 42.69 39.76 42.69 37V5C42.69 2.24 40.45 0 37.69 0H5.69ZM8.69 14H15.42C16.15 14 20.1 13.95 20.1 17.57C20.1 19.49 18.79 20.14 18.2 20.43C19.08 20.71 20.69 21.52 20.69 24C20.69 27.83 16.3 28 15.71 28H8.69V14ZM25.69 14H32.69V16H25.69V14ZM11.69 16.43V19.71H14.91C15.35 19.71 16.81 19.47 16.81 18C16.81 16.53 14.91 16.43 14.62 16.43H11.69ZM29.42 17C33.32 17 34.38 20.04 34.54 20.76C34.69 21.49 34.69 22.13 34.69 23H26.79C26.79 23.87 27.25 25.83 29.58 25.83C30.2 25.83 30.66 25.68 31.13 25.39C31.59 25.1 31.75 24.82 31.9 24.53H34.53C34.07 25.68 33.45 26.55 32.52 27.13C31.59 27.71 30.51 28 29.27 28C28.49 28 27.72 27.85 26.94 27.56C26.32 27.27 25.7 26.84 25.24 26.41C24.78 25.97 24.47 25.39 24.16 24.67C23.85 24.09 23.69 23.22 23.69 22.5C23.69 21.78 23.98 17 29.42 17ZM29.42 19.03C27.16 19.03 26.79 21.2 26.79 21.34H31.75C31.59 20.62 30.94 19.03 29.42 19.03ZM11.69 21.71V25.57H15.04C15.33 25.57 17.37 25.48 17.37 23.71C17.37 21.94 15.77 21.71 15.04 21.71H11.69Z" fill="white"/>
</svg>
