<svg width="329" height="65" viewBox="0 0 329 65" fill="none" xmlns="http://www.w3.org/2000/svg">
<g clip-path="url(#clip0_47_89)">
<path d="M265.086 2.00509C264.596 1.25704 263.96 0.871442 263.176 0.846593C263.004 0.846593 262.919 0.797751 262.919 0.69921C262.919 0.650368 262.943 0.607524 262.992 0.570679C263.041 0.533833 263.103 0.515839 263.176 0.515839C264.278 0.58953 265.061 0.625519 265.526 0.625519H272.65C273.066 0.625519 273.862 0.58953 275.037 0.515839C275.184 0.515839 275.263 0.570679 275.276 0.681216C275.288 0.791752 275.208 0.846593 275.037 0.846593C274.254 0.871442 273.61 1.25789 273.109 2.00509C272.607 2.75314 272.357 3.94934 272.357 5.59197V21.4116C272.357 23.0559 272.607 24.2513 273.109 24.9985C273.61 25.7465 274.254 26.1338 275.037 26.1578C275.208 26.1578 275.288 26.2127 275.276 26.3232C275.263 26.4338 275.184 26.4886 275.037 26.4886C273.862 26.4149 273.066 26.3781 272.65 26.3781H265.526C265.061 26.3781 264.278 26.4149 263.176 26.4886C263.029 26.4886 262.95 26.4338 262.938 26.3232C262.925 26.2127 263.005 26.1578 263.176 26.1578C263.96 26.1338 264.595 25.7465 265.086 24.9985C265.575 24.2504 265.821 23.0551 265.821 21.4116V5.59197C265.821 3.94934 265.575 2.75314 265.086 2.00509Z" fill="#1D1D1B"/>
<path d="M300.991 0.68037C301.003 0.790907 300.923 0.845747 300.752 0.845747C299.969 0.870596 299.333 1.25705 298.842 2.00424C298.352 2.75229 298.108 3.94849 298.108 5.59112V26.5974C298.108 26.7688 298.034 26.8553 297.887 26.8553C297.74 26.8553 297.606 26.7817 297.483 26.6343L281.83 3.93564C281.731 3.83796 281.646 3.78826 281.572 3.78826C281.45 3.78826 281.388 3.8748 281.388 4.04618V21.4467C281.388 23.0911 281.639 24.2864 282.141 25.0336C282.642 25.7817 283.285 26.1681 284.069 26.1921C284.24 26.1921 284.319 26.247 284.307 26.3575C284.294 26.468 284.216 26.5229 284.069 26.5229C283.481 26.4492 282.686 26.4123 281.682 26.4123H280.69C279.686 26.4123 278.891 26.4492 278.303 26.5229C278.156 26.5229 278.077 26.468 278.065 26.3575C278.052 26.247 278.132 26.1921 278.303 26.1921C279.087 26.1681 279.729 25.7817 280.231 25.0336C280.732 24.2856 280.984 23.0902 280.984 21.4467V2.86969C280.323 2.15848 279.753 1.6435 279.277 1.32474C278.799 1.00598 278.315 0.834607 277.826 0.809758C277.654 0.809758 277.575 0.754918 277.587 0.644381C277.599 0.534701 277.679 0.479004 277.826 0.479004C278.389 0.552695 279.172 0.589541 280.176 0.589541L286.309 0.62553C286.994 0.62553 287.508 0.822611 287.851 1.2142L297.226 15.1016C297.348 15.2241 297.459 15.285 297.557 15.285C297.655 15.285 297.704 15.2001 297.704 15.0279L297.667 5.59198C297.667 3.94935 297.422 2.75315 296.934 2.0051C296.443 1.25705 295.807 0.871453 295.024 0.846603C294.852 0.846603 294.767 0.797762 294.767 0.699221C294.767 0.650379 294.791 0.607535 294.841 0.57069C294.889 0.533844 294.951 0.51585 295.025 0.51585C296.126 0.589541 296.91 0.62553 297.375 0.62553H298.403C298.867 0.62553 299.652 0.589541 300.753 0.51585C300.9 0.51585 300.979 0.57069 300.992 0.681226L300.991 0.68037Z" fill="#1D1D1B"/>
<path d="M233.469 26.1578C232.955 26.1338 232.465 25.7894 232.001 25.1279C231.536 24.4655 230.973 23.313 230.312 21.6695L221.94 1.1405C221.866 0.920284 221.768 0.778899 221.646 0.717204C221.523 0.656366 221.352 0.625519 221.132 0.625519H214.412C214.314 0.625519 214.253 0.656366 214.229 0.717204C214.204 0.778899 214.241 0.821743 214.339 0.845736C214.731 0.870585 215 1.07881 215.147 1.4704L215.918 3.3838C216.138 3.82509 216.248 4.32808 216.248 4.89276C216.248 5.26036 216.199 5.57912 216.101 5.84903L209.675 21.6687C209.014 23.3122 208.457 24.4647 208.005 25.127C207.551 25.7885 207.068 26.133 206.554 26.157C206.432 26.157 206.37 26.2118 206.37 26.3224C206.37 26.4329 206.431 26.4877 206.554 26.4877C207.362 26.414 207.937 26.3772 208.28 26.3772H209.198C209.785 26.3772 210.85 26.414 212.392 26.4877C212.613 26.4877 212.723 26.426 212.723 26.3035C212.723 26.2058 212.613 26.157 212.392 26.157C211.585 26.133 210.911 25.9179 210.373 25.5126C209.834 25.1082 209.565 24.4886 209.565 23.6549C209.565 23.0911 209.712 22.4287 210.005 21.6687L210.152 21.3011V21.3088L210.77 19.7973C210.947 19.3637 211.369 19.08 211.836 19.08H221.606C222.035 19.08 222.421 19.3405 222.583 19.7398L222.933 20.6087L223.371 21.6695C223.689 22.4544 223.849 23.1408 223.849 23.7295C223.849 24.5383 223.597 25.1407 223.096 25.5323C222.594 25.9248 221.964 26.1338 221.205 26.1578C221.009 26.1578 220.911 26.2067 220.911 26.3044C220.911 26.4269 221.021 26.4886 221.241 26.4886C222.637 26.4149 223.64 26.3781 224.252 26.3781H231.744C232.013 26.3781 232.588 26.4149 233.469 26.4886C233.592 26.4886 233.653 26.4338 233.653 26.3232C233.653 26.2127 233.592 26.1578 233.469 26.1578ZM211.975 18.8153C211.591 18.8153 211.33 18.4254 211.475 18.0689L211.512 17.9798L216.688 5.22351L220.578 14.7751L221.572 17.2163H221.563L221.907 18.0681C222.052 18.4254 221.789 18.8144 221.405 18.8144H211.975V18.8153Z" fill="#1D1D1B"/>
<path d="M328.816 26.1578C328.302 26.1338 327.812 25.7894 327.348 25.1279C326.882 24.4655 326.32 23.313 325.658 21.6695L317.286 1.1405C317.213 0.920284 317.114 0.778899 316.993 0.717204C316.87 0.656366 316.699 0.625519 316.479 0.625519H309.759C309.661 0.625519 309.6 0.656366 309.575 0.717204C309.55 0.778899 309.587 0.821743 309.686 0.845736C310.077 0.870585 310.347 1.07881 310.494 1.4704L311.264 3.3838C311.485 3.82509 311.594 4.32808 311.594 4.89276C311.594 5.26036 311.546 5.57912 311.447 5.84903L305.022 21.6687C304.361 23.3122 303.804 24.4647 303.351 25.127C302.898 25.7885 302.415 26.133 301.901 26.157C301.779 26.157 301.717 26.2118 301.717 26.3224C301.717 26.4329 301.778 26.4877 301.901 26.4877C302.709 26.414 303.284 26.3772 303.627 26.3772H304.545C305.132 26.3772 306.197 26.414 307.739 26.4877C307.96 26.4877 308.07 26.426 308.07 26.3035C308.07 26.2058 307.96 26.157 307.739 26.157C306.932 26.133 306.258 25.9179 305.72 25.5126C305.181 25.1082 304.911 24.4886 304.911 23.6549C304.911 23.0911 305.059 22.4287 305.352 21.6687L305.499 21.3011V21.3088L306.116 19.7973C306.294 19.3637 306.715 19.08 307.182 19.08H316.953C317.382 19.08 317.768 19.3405 317.929 19.7398L318.28 20.6087L318.718 21.6695C319.035 22.4544 319.195 23.1408 319.195 23.7295C319.195 24.5383 318.944 25.1407 318.443 25.5323C317.941 25.9248 317.31 26.1338 316.552 26.1578C316.356 26.1578 316.257 26.2067 316.257 26.3044C316.257 26.4269 316.368 26.4886 316.587 26.4886C317.983 26.4149 318.987 26.3781 319.599 26.3781H327.09C327.36 26.3781 327.934 26.4149 328.816 26.4886C328.938 26.4886 329 26.4338 329 26.3232C329 26.2127 328.938 26.1578 328.816 26.1578ZM307.322 18.8153C306.938 18.8153 306.677 18.4254 306.822 18.0689L306.859 17.9798L312.035 5.22351L315.925 14.7751L316.918 17.2163H316.91L317.254 18.0681C317.398 18.4254 317.136 18.8144 316.752 18.8144H307.322V18.8153Z" fill="#1D1D1B"/>
<path d="M260.796 26.1578C259.718 26.1339 259.174 25.4664 258.5 24.7174C257.869 24.0165 253.165 14.776 252.579 13.6201C254.139 13.2644 255.422 12.7478 256.42 12.0665C258.109 10.914 258.953 9.34424 258.953 7.35715C258.953 4.92876 258.035 3.1576 256.199 2.04109C254.363 0.92544 251.486 0.367615 247.569 0.367615C246.15 0.367615 244.166 0.417314 241.621 0.514997C241.107 0.539847 240.507 0.564696 239.821 0.588689C239.136 0.612681 238.365 0.624677 237.508 0.624677L236.112 0.588689C235.843 0.564696 235.5 0.551843 235.084 0.551843C234.962 0.551843 234.9 0.600685 234.9 0.698369C234.9 0.796052 234.974 0.845751 235.121 0.845751C235.928 0.870601 236.577 1.25705 237.068 2.00425C237.557 2.7523 237.802 3.9485 237.802 5.59113V21.4108C237.802 23.0551 237.557 24.2504 237.068 24.9976C236.577 25.7457 235.941 26.133 235.158 26.157C234.986 26.157 234.906 26.2118 234.919 26.3224C234.931 26.4329 235.011 26.4877 235.158 26.4877C236.259 26.4141 237.043 26.3772 237.508 26.3772H244.632C245.047 26.3772 245.843 26.4141 247.019 26.4877C247.166 26.4877 247.244 26.4329 247.257 26.3224C247.269 26.2118 247.19 26.157 247.019 26.157C246.235 26.133 245.592 25.7457 245.091 24.9976C244.589 24.2496 244.338 23.0542 244.338 21.4108V14.0605L245.519 14.1059C246.291 15.3929 251.375 23.93 251.13 24.9976C250.904 25.9796 250.309 26.133 249.232 26.157C249.011 26.157 248.902 26.2058 248.902 26.3035C248.902 26.4261 249.012 26.4877 249.232 26.4877C250.774 26.4141 251.839 26.3772 252.427 26.3772H257.565C258.176 26.3772 259.254 26.4141 260.796 26.4877C261.017 26.4877 261.127 26.4261 261.127 26.3035C261.127 26.2058 261.017 26.157 260.796 26.157V26.1578ZM244.338 13.7889V2.13364C244.338 1.56981 244.43 1.18336 244.614 0.975139C244.797 0.766919 245.134 0.674376 245.624 0.699226H246.505C248.071 0.748924 249.307 1.25791 250.213 2.22618C251.119 3.1953 251.572 4.7094 251.572 6.76933C251.572 8.82926 251.18 10.5473 250.397 11.6998C249.613 12.8531 246.84 13.5395 244.98 13.7597L244.338 13.7889Z" fill="#1D1D1B"/>
<path d="M204.902 26.444C203.237 26.3952 202.209 24.8245 201.817 21.7346C201.817 21.7346 201.871 4.90989 201.871 4.66482C201.871 3.46263 202.109 2.5809 202.587 2.01622C203.064 1.4524 203.682 1.15763 204.441 1.13364C204.612 1.13364 204.691 1.0788 204.679 0.968264C204.667 0.858584 204.588 0.802887 204.441 0.802887C203.192 0.876578 202.335 0.912567 201.871 0.912567H197.008C196.812 0.912567 196.665 1.03596 196.567 1.28102L188.949 17.32C188.899 17.4426 188.838 17.5034 188.765 17.5034C188.691 17.5034 188.63 17.4426 188.581 17.32L180.806 1.46525C180.659 1.09765 180.378 0.913424 179.961 0.913424H174.196C173.78 0.913424 172.984 0.877435 171.809 0.803744C171.662 0.803744 171.582 0.858584 171.57 0.969121C171.558 1.07966 171.638 1.1345 171.809 1.1345C172.445 1.15935 173.039 1.43526 173.59 1.96224C174.141 2.49007 174.697 3.34181 175.26 4.51916L175.269 4.53715C175.36 4.74366 175.407 4.96644 175.407 5.19266V21.4502C175.089 24.5409 174.085 26.1107 172.396 26.1595C172.224 26.1595 172.144 26.2144 172.157 26.3249C172.169 26.4355 172.25 26.4903 172.396 26.4903C173.497 26.4166 174.293 26.3798 174.783 26.3798H175.945C176.606 26.3798 177.745 26.4166 179.36 26.4903C179.581 26.4903 179.691 26.4286 179.691 26.3061C179.691 26.2084 179.581 26.1595 179.36 26.1595C178.332 26.1356 177.481 25.8099 176.808 25.1844C176.134 24.5589 175.798 23.5966 175.798 22.2959C175.798 21.9283 175.749 21.6464 175.774 21.4502V5.97841C175.774 5.91586 175.86 5.90044 175.883 5.95871L185.108 25.1202C185.181 25.3164 185.291 25.4141 185.439 25.4141C185.561 25.4141 185.659 25.3035 185.732 25.0833L194.832 5.73163C194.929 5.56112 195.016 5.47457 195.089 5.47457C195.212 5.47457 195.285 5.56112 195.31 5.73163C195.31 5.73163 195.256 22.4844 195.256 22.6549C195.256 23.9557 194.926 24.9059 194.265 25.5066C193.604 26.1073 192.747 26.4209 191.695 26.4449C191.474 26.4449 191.364 26.4937 191.364 26.5914C191.364 26.6411 191.401 26.6831 191.474 26.7199C191.548 26.7568 191.633 26.7756 191.731 26.7756C193.346 26.7019 194.473 26.6651 195.109 26.6651H202.514C202.978 26.6651 203.763 26.7019 204.864 26.7756C205.035 26.7756 205.122 26.7139 205.122 26.5914C205.122 26.4937 205.048 26.4449 204.901 26.4449L204.902 26.444Z" fill="#1D1D1B"/>
<path d="M87.3782 25.7337C85.6643 24.8631 84.3489 23.6129 83.4303 21.9814C82.5126 20.3508 82.0533 18.4314 82.0533 16.2241V5.59197C82.0533 3.94934 81.8207 2.75314 81.3554 2.00509C80.8902 1.25704 80.2778 0.871444 79.5192 0.846595C79.3721 0.846595 79.3045 0.791755 79.3173 0.681218C79.3293 0.571538 79.3969 0.515841 79.5192 0.515841C80.6208 0.589532 81.3674 0.625521 81.7591 0.625521H88.9562C89.5189 0.625521 90.4614 0.589532 91.7837 0.515841C91.9795 0.515841 92.0779 0.577536 92.0779 0.699212C92.0779 0.797753 91.9795 0.846595 91.7837 0.846595C90.8292 0.871444 90.0577 1.2579 89.4702 2.00509C88.8826 2.75314 88.5893 3.94934 88.5893 5.59197V16.5557C88.5893 19.0329 89.2435 20.9943 90.5538 22.4416C91.8632 23.8897 93.6687 24.612 95.9702 24.612C97.3651 24.612 98.6018 24.2573 99.6786 23.5452C100.755 22.834 101.588 21.828 102.175 20.5282C102.763 19.2283 103.056 17.745 103.056 16.0767L103.019 5.59111C103.019 3.94848 102.719 2.75229 102.12 2.00423C101.519 1.25618 100.743 0.870587 99.7881 0.845738C99.5922 0.845738 99.4947 0.796896 99.4947 0.698355C99.4947 0.576679 99.5922 0.514984 99.7881 0.514984C101.184 0.588675 102.138 0.624664 102.652 0.624664H103.57C103.937 0.624664 104.561 0.588675 105.443 0.514984C105.565 0.514984 105.632 0.569824 105.645 0.680361C105.657 0.790898 105.602 0.845738 105.48 0.845738C104.843 0.870587 104.329 1.25704 103.938 2.00423C103.546 2.75229 103.35 3.94848 103.35 5.59111V15.9662C103.35 19.4245 102.474 22.1348 100.725 24.0962C98.9739 26.0593 96.5441 27.0396 93.436 27.0396C91.1097 27.0396 89.0904 26.6043 87.3773 25.7337H87.3782Z" fill="#1D1D1B"/>
<path d="M107.905 26.4886C107.757 26.4886 107.678 26.4338 107.666 26.3232C107.653 26.2127 107.733 26.1578 107.905 26.1578C108.688 26.1339 109.323 25.7465 109.814 24.9985C110.304 24.2504 110.549 23.0551 110.549 21.4116V5.59198C110.549 3.94935 110.304 2.75315 109.814 2.00509C109.324 1.25704 108.688 0.871449 107.905 0.846599C107.733 0.846599 107.647 0.797757 107.647 0.699217C107.647 0.650375 107.671 0.607531 107.721 0.570685C107.769 0.53384 107.831 0.515845 107.905 0.515845C109.006 0.589537 109.79 0.625525 110.255 0.625525H121.197C122.347 0.625525 123.303 0.589537 124.061 0.515845C124.82 0.442154 125.701 0.34447 126.705 0.22108C127.44 0.124253 127.855 0.0745544 127.954 0.0745544C128.223 0.0745544 128.425 0.154244 128.559 0.313623C128.693 0.473858 128.773 0.736919 128.798 1.10452C128.895 3.67943 128.854 7.0161 128.854 11.1111C128.878 11.2097 128.854 11.2713 128.781 11.2953C128.707 11.3202 128.646 11.2833 128.597 11.1848C127.886 9.12487 127.856 7.55508 127.293 6.47541C126.73 5.39575 126.3 4.47718 125.639 3.71628C124.685 2.63747 123.613 1.90741 122.426 1.52696C121.238 1.14736 119.849 0.957136 118.258 0.957136C117.475 0.957136 117.083 1.48411 117.083 2.53893V11.4787C117.083 11.7735 117.144 12.0305 117.267 12.2516C117.389 12.4718 117.584 12.5824 117.855 12.5824C118.638 12.5824 119.323 12.5584 119.911 12.5087C120.669 12.411 121.336 12.0305 121.912 11.3682C122.487 10.7058 123.008 9.61501 123.473 8.09319C123.522 7.94667 123.588 7.87298 123.675 7.87298C123.761 7.87298 123.791 7.94667 123.766 8.09319C123.619 9.12316 123.546 10.4239 123.546 11.9928C123.546 14.3724 123.68 16.3098 123.949 17.8059V17.8427C123.949 17.9404 123.913 17.9893 123.839 17.9893C123.765 17.9893 123.704 17.9284 123.655 17.8059C123.141 16.2361 122.571 15.0647 121.948 14.2927C121.324 13.5206 120.645 13.0854 119.91 12.9868C119.322 12.938 118.636 12.9131 117.854 12.9131C117.584 12.9131 117.389 13.0237 117.266 13.2439C117.143 13.4649 117.082 13.722 117.082 14.0168V23.876C117.082 24.636 117.18 25.1887 117.377 25.5315C117.572 25.8751 117.903 26.0465 118.368 26.0465C120.007 26.0465 121.544 25.7945 122.976 25.2924C124.409 24.7903 125.032 24.0225 126.06 22.9925C127.626 21.4467 127.844 19.1298 128.652 16.039C128.701 15.8428 128.768 15.7691 128.854 15.8179C128.94 15.8676 128.958 15.9533 128.909 16.0758C128.909 19.2643 129.036 22.5384 128.987 25.8982C128.987 26.2658 128.913 26.5297 128.766 26.6891C128.619 26.8485 128.399 26.9282 128.105 26.9282C127.787 26.9282 127.395 26.8785 126.93 26.7808C124.971 26.5109 122.964 26.3763 120.907 26.3763H110.251C109.786 26.3763 109.003 26.4132 107.901 26.4869L107.905 26.4886Z" fill="#1D1D1B"/>
<path d="M156.037 9.9329C156.037 10.0563 155.994 10.1171 155.909 10.1171C155.823 10.1171 155.768 10.0563 155.744 9.9329C154.887 7.2843 154.485 5.25522 153.566 3.84395C152.649 2.43353 151.65 1.55695 150.574 1.21334C150.255 1.01711 149.411 0.919431 148.04 0.919431C147.845 0.919431 147.697 1.06082 147.6 1.34273C147.502 1.62464 147.453 1.9374 147.453 2.28101V21.4107C147.453 23.0551 147.789 24.2504 148.463 24.9976C149.136 25.7457 150.011 26.133 151.089 26.157C151.309 26.157 151.42 26.2058 151.42 26.3035C151.42 26.426 151.309 26.4877 151.089 26.4877C149.547 26.414 148.469 26.3772 147.857 26.3772H140.476C139.889 26.3772 138.824 26.414 137.281 26.4877C137.061 26.4877 136.951 26.426 136.951 26.3035C136.951 26.2058 137.061 26.157 137.281 26.157C138.358 26.133 139.233 25.7457 139.907 24.9976C140.58 24.2496 140.917 23.0542 140.917 21.4107V2.28101C140.917 1.96225 140.862 1.65549 140.752 1.36158C140.642 1.06681 140.488 0.920288 140.293 0.920288C138.97 0.920288 138.126 1.01797 137.759 1.2142C135.605 1.9494 134.277 4.85677 132.687 9.93376C132.662 10.0572 132.601 10.118 132.503 10.118C132.453 10.118 132.411 10.094 132.375 10.0443C132.338 9.99546 132.332 9.93376 132.357 9.86007C132.357 7.35885 132.215 5.4583 132.215 3.34867L132.178 0.921145C132.178 0.357321 132.447 0.0754089 132.985 0.0754089C133.279 0.0754089 133.683 0.112255 134.197 0.185089C136.009 0.479854 138.248 0.62638 140.917 0.62638H147.453C150.096 0.62638 152.324 0.479854 154.136 0.185089C154.65 0.112255 155.054 0.0754089 155.348 0.0754089C155.935 0.0754089 156.217 0.419016 156.192 1.10537C156.118 1.98795 156.082 2.88425 156.082 3.79082C156.082 5.55684 156.037 7.28602 156.037 9.86093V9.93462V9.9329Z" fill="#1D1D1B"/>
<path d="M265.086 2.00509C264.596 1.25704 263.96 0.871442 263.176 0.846593C263.004 0.846593 262.919 0.797751 262.919 0.69921C262.919 0.650368 262.943 0.607524 262.992 0.570679C263.041 0.533833 263.103 0.515839 263.176 0.515839C264.278 0.58953 265.061 0.625519 265.526 0.625519H272.65C273.066 0.625519 273.862 0.58953 275.037 0.515839C275.184 0.515839 275.263 0.570679 275.276 0.681216C275.288 0.791752 275.208 0.846593 275.037 0.846593C274.254 0.871442 273.61 1.25789 273.109 2.00509C272.607 2.75314 272.357 3.94934 272.357 5.59197V21.4116C272.357 23.0559 272.607 24.2513 273.109 24.9985C273.61 25.7465 274.254 26.1338 275.037 26.1578C275.208 26.1578 275.288 26.2127 275.276 26.3232C275.263 26.4338 275.184 26.4886 275.037 26.4886C273.862 26.4149 273.066 26.3781 272.65 26.3781H265.526C265.061 26.3781 264.278 26.4149 263.176 26.4886C263.029 26.4886 262.95 26.4338 262.938 26.3232C262.925 26.2127 263.005 26.1578 263.176 26.1578C263.96 26.1338 264.595 25.7465 265.086 24.9985C265.575 24.2504 265.821 23.0551 265.821 21.4116V5.59197C265.821 3.94934 265.575 2.75314 265.086 2.00509Z" fill="#1D1D1B"/>
<path d="M300.991 0.68037C301.003 0.790907 300.923 0.845747 300.752 0.845747C299.969 0.870596 299.333 1.25705 298.842 2.00424C298.352 2.75229 298.108 3.94849 298.108 5.59112V26.5974C298.108 26.7688 298.034 26.8553 297.887 26.8553C297.74 26.8553 297.606 26.7817 297.483 26.6343L281.83 3.93564C281.731 3.83796 281.646 3.78826 281.572 3.78826C281.45 3.78826 281.388 3.8748 281.388 4.04618V21.4467C281.388 23.0911 281.639 24.2864 282.141 25.0336C282.642 25.7817 283.285 26.1681 284.069 26.1921C284.24 26.1921 284.319 26.247 284.307 26.3575C284.294 26.468 284.216 26.5229 284.069 26.5229C283.481 26.4492 282.686 26.4123 281.682 26.4123H280.69C279.686 26.4123 278.891 26.4492 278.303 26.5229C278.156 26.5229 278.077 26.468 278.065 26.3575C278.052 26.247 278.132 26.1921 278.303 26.1921C279.087 26.1681 279.729 25.7817 280.231 25.0336C280.732 24.2856 280.984 23.0902 280.984 21.4467V2.86969C280.323 2.15848 279.753 1.6435 279.277 1.32474C278.799 1.00598 278.315 0.834607 277.826 0.809758C277.654 0.809758 277.575 0.754918 277.587 0.644381C277.599 0.534701 277.679 0.479004 277.826 0.479004C278.389 0.552695 279.172 0.589541 280.176 0.589541L286.309 0.62553C286.994 0.62553 287.508 0.822611 287.851 1.2142L297.226 15.1016C297.348 15.2241 297.459 15.285 297.557 15.285C297.655 15.285 297.704 15.2001 297.704 15.0279L297.667 5.59198C297.667 3.94935 297.422 2.75315 296.934 2.0051C296.443 1.25705 295.807 0.871453 295.024 0.846603C294.852 0.846603 294.767 0.797762 294.767 0.699221C294.767 0.650379 294.791 0.607535 294.841 0.57069C294.889 0.533844 294.951 0.51585 295.025 0.51585C296.126 0.589541 296.91 0.62553 297.375 0.62553H298.403C298.867 0.62553 299.652 0.589541 300.753 0.51585C300.9 0.51585 300.979 0.57069 300.992 0.681226L300.991 0.68037Z" fill="#1D1D1B"/>
<path d="M22.6209 0.680361C22.6081 0.570681 22.5294 0.514984 22.3823 0.514984C21.2072 0.588675 20.4118 0.624664 19.9952 0.624664H12.8717C12.4065 0.624664 11.6231 0.588675 10.5215 0.514984C10.4479 0.514984 10.3863 0.532979 10.3376 0.569824C10.2888 0.605813 10.264 0.649514 10.264 0.698355C10.264 0.796896 10.3376 0.845738 10.4847 0.845738C11.2921 0.870587 11.9404 1.25704 12.4313 2.00423C12.9205 2.75229 13.1651 3.94848 13.1651 5.59111V23.0834C13.1087 24.1039 12.8581 24.8957 12.4843 25.4569C12.0438 26.1193 11.2963 26.45 10.2444 26.45C9.11798 26.45 8.18147 26.0336 7.43568 25.199C6.68817 24.3653 6.14423 23.3781 5.80126 22.2376C5.4583 21.0971 5.28725 20.0363 5.28725 19.0552C5.28725 18.0741 5.47113 17.332 5.83804 16.9027C6.20495 16.4743 6.80535 16.1975 7.63752 16.075C7.78462 16.051 7.85818 15.9893 7.85818 15.8908C7.85818 15.7922 7.7718 15.7442 7.60074 15.7442C5.61738 15.6954 3.85554 16.063 2.31264 16.8479C0.771449 17.6345 0 18.9712 0 20.8598C0 21.8657 0.318159 22.84 0.954476 23.7843C1.59079 24.7286 2.57606 25.5075 3.91027 26.121C5.24449 26.7337 6.89344 26.9273 8.84943 27.0404C11.0312 27.1664 11.6727 26.947 13.1651 26.7688C14.7815 26.4029 16.1414 25.6668 17.2413 24.5572C18.8808 22.9017 19.7019 20.5282 19.7019 17.4391V5.59197C19.7019 3.94934 19.9525 2.75314 20.4545 2.00509C20.9557 1.25704 21.598 0.871444 22.3823 0.846595C22.5533 0.846595 22.6329 0.791755 22.6209 0.681218V0.680361Z" fill="#1D1D1B"/>
<path d="M47.9769 26.1578C47.4629 26.1338 46.9729 25.7894 46.5085 25.1279C46.0432 24.4655 45.4804 23.313 44.8193 21.6695L36.4463 1.1405C36.3727 0.920284 36.2744 0.778899 36.1529 0.717204C36.0297 0.656366 35.8587 0.625519 35.6389 0.625519H28.9191C28.8207 0.625519 28.76 0.656366 28.7352 0.717204C28.7104 0.778899 28.7472 0.821743 28.8455 0.845736C29.2372 0.870585 29.5066 1.07881 29.6537 1.4704L30.4243 3.3838C30.645 3.82509 30.7545 4.32808 30.7545 4.89276C30.7545 5.26036 30.7057 5.57912 30.6074 5.84903L24.1818 21.6687C23.5206 23.3122 22.9639 24.4647 22.5114 25.127C22.0581 25.7885 21.5749 26.133 21.0609 26.157C20.9386 26.157 20.877 26.2118 20.877 26.3224C20.877 26.4329 20.9377 26.4877 21.0609 26.4877C21.8691 26.414 22.4439 26.3772 22.7868 26.3772H23.7045C24.2921 26.3772 25.3569 26.414 26.8989 26.4877C27.1196 26.4877 27.2299 26.426 27.2299 26.3035C27.2299 26.2058 27.1196 26.157 26.8989 26.157C26.0916 26.133 25.4176 25.9179 24.8797 25.5126C24.3408 25.1082 24.0714 24.4886 24.0714 23.6549C24.0714 23.0911 24.2185 22.4287 24.5119 21.6687L24.659 21.3011V21.3088L25.2765 19.7973C25.4535 19.3637 25.8752 19.08 26.3422 19.08H36.1127C36.5421 19.08 36.9278 19.3405 37.0894 19.7398L37.4401 20.6087L37.878 21.6695C38.1953 22.4544 38.3552 23.1408 38.3552 23.7295C38.3552 24.5383 38.1038 25.1407 37.6026 25.5323C37.1005 25.9248 36.4702 26.1338 35.7116 26.1578C35.5157 26.1578 35.4174 26.2067 35.4174 26.3044C35.4174 26.4269 35.5277 26.4886 35.7475 26.4886C37.1433 26.4149 38.1465 26.3781 38.7589 26.3781H46.2502C46.5196 26.3781 47.0943 26.4149 47.9761 26.4886C48.0984 26.4886 48.16 26.4338 48.16 26.3232C48.16 26.2127 48.0984 26.1578 47.9761 26.1578H47.9769ZM26.4824 18.8153C26.0984 18.8153 25.8376 18.4254 25.9829 18.0689L26.0197 17.9798L31.1958 5.22351L35.0855 14.7751L36.0794 17.2163H36.0708L36.4146 18.0681C36.5592 18.4254 36.2966 18.8144 35.9126 18.8144H26.4824V18.8153Z" fill="#1D1D1B"/>
<path d="M233.469 26.1578C232.955 26.1338 232.465 25.7894 232.001 25.1279C231.536 24.4655 230.973 23.313 230.312 21.6695L221.94 1.1405C221.866 0.920284 221.768 0.778899 221.646 0.717204C221.523 0.656366 221.352 0.625519 221.132 0.625519H214.412C214.314 0.625519 214.253 0.656366 214.229 0.717204C214.204 0.778899 214.241 0.821743 214.339 0.845736C214.731 0.870585 215 1.07881 215.147 1.4704L215.918 3.3838C216.138 3.82509 216.248 4.32808 216.248 4.89276C216.248 5.26036 216.199 5.57912 216.101 5.84903L209.675 21.6687C209.014 23.3122 208.457 24.4647 208.005 25.127C207.551 25.7885 207.068 26.133 206.554 26.157C206.432 26.157 206.37 26.2118 206.37 26.3224C206.37 26.4329 206.431 26.4877 206.554 26.4877C207.362 26.414 207.937 26.3772 208.28 26.3772H209.198C209.785 26.3772 210.85 26.414 212.392 26.4877C212.613 26.4877 212.723 26.426 212.723 26.3035C212.723 26.2058 212.613 26.157 212.392 26.157C211.585 26.133 210.911 25.9179 210.373 25.5126C209.834 25.1082 209.565 24.4886 209.565 23.6549C209.565 23.0911 209.712 22.4287 210.005 21.6687L210.152 21.3011V21.3088L210.77 19.7973C210.947 19.3637 211.369 19.08 211.836 19.08H221.606C222.035 19.08 222.421 19.3405 222.583 19.7398L222.933 20.6087L223.371 21.6695C223.689 22.4544 223.849 23.1408 223.849 23.7295C223.849 24.5383 223.597 25.1407 223.096 25.5323C222.594 25.9248 221.964 26.1338 221.205 26.1578C221.009 26.1578 220.911 26.2067 220.911 26.3044C220.911 26.4269 221.021 26.4886 221.241 26.4886C222.637 26.4149 223.64 26.3781 224.252 26.3781H231.744C232.013 26.3781 232.588 26.4149 233.469 26.4886C233.592 26.4886 233.653 26.4338 233.653 26.3232C233.653 26.2127 233.592 26.1578 233.469 26.1578ZM211.975 18.8153C211.591 18.8153 211.33 18.4254 211.475 18.0689L211.512 17.9798L216.688 5.22351L220.578 14.7751L221.572 17.2163H221.563L221.907 18.0681C222.052 18.4254 221.789 18.8144 221.405 18.8144H211.975V18.8153Z" fill="#1D1D1B"/>
<path d="M328.816 26.1578C328.302 26.1338 327.812 25.7894 327.348 25.1279C326.882 24.4655 326.32 23.313 325.658 21.6695L317.286 1.1405C317.213 0.920284 317.114 0.778899 316.993 0.717204C316.87 0.656366 316.699 0.625519 316.479 0.625519H309.759C309.661 0.625519 309.6 0.656366 309.575 0.717204C309.55 0.778899 309.587 0.821743 309.686 0.845736C310.077 0.870585 310.347 1.07881 310.494 1.4704L311.264 3.3838C311.485 3.82509 311.594 4.32808 311.594 4.89276C311.594 5.26036 311.546 5.57912 311.447 5.84903L305.022 21.6687C304.361 23.3122 303.804 24.4647 303.351 25.127C302.898 25.7885 302.415 26.133 301.901 26.157C301.779 26.157 301.717 26.2118 301.717 26.3224C301.717 26.4329 301.778 26.4877 301.901 26.4877C302.709 26.414 303.284 26.3772 303.627 26.3772H304.545C305.132 26.3772 306.197 26.414 307.739 26.4877C307.96 26.4877 308.07 26.426 308.07 26.3035C308.07 26.2058 307.96 26.157 307.739 26.157C306.932 26.133 306.258 25.9179 305.72 25.5126C305.181 25.1082 304.911 24.4886 304.911 23.6549C304.911 23.0911 305.059 22.4287 305.352 21.6687L305.499 21.3011V21.3088L306.116 19.7973C306.294 19.3637 306.715 19.08 307.182 19.08H316.953C317.382 19.08 317.768 19.3405 317.929 19.7398L318.28 20.6087L318.718 21.6695C319.035 22.4544 319.195 23.1408 319.195 23.7295C319.195 24.5383 318.944 25.1407 318.443 25.5323C317.941 25.9248 317.31 26.1338 316.552 26.1578C316.356 26.1578 316.257 26.2067 316.257 26.3044C316.257 26.4269 316.368 26.4886 316.587 26.4886C317.983 26.4149 318.987 26.3781 319.599 26.3781H327.09C327.36 26.3781 327.934 26.4149 328.816 26.4886C328.938 26.4886 329 26.4338 329 26.3232C329 26.2127 328.938 26.1578 328.816 26.1578ZM307.322 18.8153C306.938 18.8153 306.677 18.4254 306.822 18.0689L306.859 17.9798L312.035 5.22351L315.925 14.7751L316.918 17.2163H316.91L317.254 18.0681C317.398 18.4254 317.136 18.8144 316.752 18.8144H307.322V18.8153Z" fill="#1D1D1B"/>
<path d="M260.796 26.1578C259.718 26.1339 259.174 25.4664 258.5 24.7174C257.869 24.0165 253.165 14.776 252.579 13.6201C254.139 13.2644 255.422 12.7478 256.42 12.0665C258.109 10.914 258.953 9.34424 258.953 7.35715C258.953 4.92876 258.035 3.1576 256.199 2.04109C254.363 0.92544 251.486 0.367615 247.569 0.367615C246.15 0.367615 244.166 0.417314 241.621 0.514997C241.107 0.539847 240.507 0.564696 239.821 0.588689C239.136 0.612681 238.365 0.624677 237.508 0.624677L236.112 0.588689C235.843 0.564696 235.5 0.551843 235.084 0.551843C234.962 0.551843 234.9 0.600685 234.9 0.698369C234.9 0.796052 234.974 0.845751 235.121 0.845751C235.928 0.870601 236.577 1.25705 237.068 2.00425C237.557 2.7523 237.802 3.9485 237.802 5.59113V21.4108C237.802 23.0551 237.557 24.2504 237.068 24.9976C236.577 25.7457 235.941 26.133 235.158 26.157C234.986 26.157 234.906 26.2118 234.919 26.3224C234.931 26.4329 235.011 26.4877 235.158 26.4877C236.259 26.4141 237.043 26.3772 237.508 26.3772H244.632C245.047 26.3772 245.843 26.4141 247.019 26.4877C247.166 26.4877 247.244 26.4329 247.257 26.3224C247.269 26.2118 247.19 26.157 247.019 26.157C246.235 26.133 245.592 25.7457 245.091 24.9976C244.589 24.2496 244.338 23.0542 244.338 21.4108V14.0605L245.519 14.1059C246.291 15.3929 251.375 23.93 251.13 24.9976C250.904 25.9796 250.309 26.133 249.232 26.157C249.011 26.157 248.902 26.2058 248.902 26.3035C248.902 26.4261 249.012 26.4877 249.232 26.4877C250.774 26.4141 251.839 26.3772 252.427 26.3772H257.565C258.176 26.3772 259.254 26.4141 260.796 26.4877C261.017 26.4877 261.127 26.4261 261.127 26.3035C261.127 26.2058 261.017 26.157 260.796 26.157V26.1578ZM244.338 13.7889V2.13364C244.338 1.56981 244.43 1.18336 244.614 0.975139C244.797 0.766919 245.134 0.674376 245.624 0.699226H246.505C248.071 0.748924 249.307 1.25791 250.213 2.22618C251.119 3.1953 251.572 4.7094 251.572 6.76933C251.572 8.82926 251.18 10.5473 250.397 11.6998C249.613 12.8531 246.84 13.5395 244.98 13.7597L244.338 13.7889Z" fill="#1D1D1B"/>
<path d="M101.699 28.5854C101.625 28.5854 101.564 28.5974 101.515 28.6222C100.094 29.3334 98.6078 29.8235 97.0529 30.0935C95.4981 30.3634 93.6071 30.4979 91.3799 30.4979C87.2909 30.4979 83.6809 30.1354 80.5472 29.4131C77.4135 28.6899 74.3285 27.5794 71.294 26.0841C70.6081 25.7405 69.9718 25.4586 69.3842 25.2384C71.7345 24.0362 73.5947 22.3499 74.9657 20.1794C76.3358 18.0089 77.0218 15.6123 77.0218 12.9877C77.0218 10.5113 76.4342 8.28513 75.2591 6.31003C74.0839 4.33664 72.4504 2.79084 70.3567 1.67433C68.2638 0.55868 65.8828 0.000854492 63.2144 0.000854492C60.374 0.000854492 57.8099 0.620375 55.5212 1.85856C53.2317 3.0976 51.4322 4.78308 50.1228 6.9167C48.8134 9.05032 48.1583 11.405 48.1583 13.9808C48.1583 16.5565 48.727 18.727 49.8654 20.7132C51.0037 22.6995 52.5945 24.2513 54.6395 25.3669C56.6827 26.4834 59.015 27.0404 61.6347 27.0404C62.614 27.0404 63.5813 26.9676 64.5357 26.8202C67.0571 28.9041 70.2694 30.6093 74.1746 31.934C78.0789 33.2588 82.002 33.9211 85.9439 33.9211C88.7346 33.9211 91.5253 33.461 94.3161 32.5416C97.1068 31.6221 99.5546 30.4011 101.66 28.881C101.758 28.8073 101.807 28.7396 101.807 28.6788C101.807 28.6179 101.771 28.5871 101.697 28.5871L101.699 28.5854ZM63.4359 25.127C61.7955 24.3181 60.2466 22.8957 58.7909 20.8598C57.3344 18.8238 56.1781 16.5188 55.3211 13.9431C54.4641 11.3682 54.0356 8.92693 54.0356 6.62193C54.0356 4.88076 54.4701 3.55003 55.3391 2.62975C56.208 1.71032 57.4139 1.25018 58.956 1.25018C60.9385 1.25018 62.8722 2.2433 64.7581 4.23039C66.6431 6.21749 68.1732 8.70071 69.3483 11.6801C70.5235 14.6603 71.111 17.5111 71.111 20.2334C71.111 22.2616 70.5294 23.7543 69.3688 24.7166C69.3663 24.7191 69.3646 24.7217 69.362 24.7234C67.6036 26.4852 64.5503 25.7654 63.4367 25.1262L63.4359 25.127Z" fill="#1D1D1B"/>
<path d="M204.902 26.444C203.237 26.3952 202.209 24.8245 201.817 21.7346C201.817 21.7346 201.871 4.90989 201.871 4.66482C201.871 3.46263 202.109 2.5809 202.587 2.01622C203.064 1.4524 203.682 1.15763 204.441 1.13364C204.612 1.13364 204.691 1.0788 204.679 0.968264C204.667 0.858584 204.588 0.802887 204.441 0.802887C203.192 0.876578 202.335 0.912567 201.871 0.912567H197.008C196.812 0.912567 196.665 1.03596 196.567 1.28102L188.949 17.32C188.899 17.4426 188.838 17.5034 188.765 17.5034C188.691 17.5034 188.63 17.4426 188.581 17.32L180.806 1.46525C180.659 1.09765 180.378 0.913424 179.961 0.913424H174.196C173.78 0.913424 172.984 0.877435 171.809 0.803744C171.662 0.803744 171.582 0.858584 171.57 0.969121C171.558 1.07966 171.638 1.1345 171.809 1.1345C172.445 1.15935 173.039 1.43526 173.59 1.96224C174.141 2.49007 174.697 3.34181 175.26 4.51916L175.269 4.53715C175.36 4.74366 175.407 4.96644 175.407 5.19266V21.4502C175.089 24.5409 174.085 26.1107 172.396 26.1595C172.224 26.1595 172.144 26.2144 172.157 26.3249C172.169 26.4355 172.25 26.4903 172.396 26.4903C173.497 26.4166 174.293 26.3798 174.783 26.3798H175.945C176.606 26.3798 177.745 26.4166 179.36 26.4903C179.581 26.4903 179.691 26.4286 179.691 26.3061C179.691 26.2084 179.581 26.1595 179.36 26.1595C178.332 26.1356 177.481 25.8099 176.808 25.1844C176.134 24.5589 175.798 23.5966 175.798 22.2959C175.798 21.9283 175.749 21.6464 175.774 21.4502V5.97841C175.774 5.91586 175.86 5.90044 175.883 5.95871L185.108 25.1202C185.181 25.3164 185.291 25.4141 185.439 25.4141C185.561 25.4141 185.659 25.3035 185.732 25.0833L194.832 5.73163C194.929 5.56112 195.016 5.47457 195.089 5.47457C195.212 5.47457 195.285 5.56112 195.31 5.73163C195.31 5.73163 195.256 22.4844 195.256 22.6549C195.256 23.9557 194.926 24.9059 194.265 25.5066C193.604 26.1073 192.747 26.4209 191.695 26.4449C191.474 26.4449 191.364 26.4937 191.364 26.5914C191.364 26.6411 191.401 26.6831 191.474 26.7199C191.548 26.7568 191.633 26.7756 191.731 26.7756C193.346 26.7019 194.473 26.6651 195.109 26.6651H202.514C202.978 26.6651 203.763 26.7019 204.864 26.7756C205.035 26.7756 205.122 26.7139 205.122 26.5914C205.122 26.4937 205.048 26.4449 204.901 26.4449L204.902 26.444Z" fill="#1D1D1B"/>
<path d="M108.934 43.9637C109.135 46.6663 109.219 49.3757 109.277 52.0852C109.335 54.7946 109.366 57.5109 109.465 60.2221C109.519 61.7439 109.596 63.2657 109.709 64.7849C109.718 64.9006 109.802 65 109.924 65C110.033 65 110.147 64.9015 110.139 64.7849C109.938 62.0823 109.854 59.3729 109.796 56.6635C109.738 53.9514 109.707 51.2377 109.608 48.5266C109.554 47.0048 109.477 45.4829 109.364 43.9637C109.355 43.848 109.271 43.7486 109.149 43.7486C109.039 43.7486 108.926 43.8472 108.934 43.9637Z" fill="#1D1D1B"/>
<path d="M109.545 44.1496C109.583 44.1308 109.485 44.1659 109.524 44.1591C109.535 44.1574 109.547 44.1514 109.558 44.1479C109.59 44.1376 109.624 44.1299 109.657 44.1222C109.75 44.1008 109.844 44.0845 109.939 44.0691C109.997 44.0597 110.055 44.0511 110.113 44.0425C110.128 44.04 110.227 44.0271 110.168 44.0348C110.207 44.0297 110.247 44.0245 110.286 44.0194C110.446 43.9997 110.606 43.9817 110.766 43.9654C111.577 43.884 112.393 43.8386 113.208 43.8266C114.03 43.8137 114.924 43.8317 115.7 43.9448C116.571 44.0717 117.383 44.4007 118.128 44.866C119.025 45.4247 119.803 46.1813 120.358 47.0827C120.913 47.9842 121.232 49.051 121.245 50.1289C121.258 51.2094 120.981 52.2934 120.401 53.2085C119.812 54.1374 118.922 54.8263 117.942 55.3019C116.91 55.8014 115.77 56.0722 114.635 56.1947C113.302 56.3387 111.947 56.2813 110.632 56.0165C110.315 55.9522 110.001 55.8768 109.689 55.7903C109.423 55.7157 109.309 56.1313 109.575 56.2059C110.903 56.5752 112.29 56.7423 113.668 56.6943C114.924 56.6515 116.194 56.4484 117.374 56.0079C118.455 55.6044 119.48 54.9977 120.248 54.1228C121.016 53.2479 121.476 52.1486 121.625 50.9935C121.771 49.853 121.596 48.6834 121.133 47.6328C120.67 46.5823 119.979 45.7391 119.126 45.0511C118.688 44.698 118.216 44.3904 117.712 44.1411C117.291 43.932 116.847 43.7469 116.39 43.6381C115.587 43.4461 114.742 43.4076 113.92 43.3964C113.037 43.3845 112.153 43.4196 111.273 43.4907C110.694 43.5378 110.093 43.5764 109.526 43.7118C109.458 43.7281 109.392 43.7478 109.329 43.7795C109.225 43.8309 109.197 43.9791 109.252 44.0742C109.315 44.1805 109.442 44.2028 109.547 44.1514L109.545 44.1496Z" fill="#1D1D1B"/>
<path d="M118.03 55.8057C118.765 56.9179 119.514 58.0207 120.215 59.1544C120.917 60.288 121.548 61.4165 122.07 62.6204C122.365 63.3017 122.618 64.0017 122.821 64.7155C122.897 64.9811 123.312 64.868 123.236 64.6007C122.87 63.3162 122.341 62.0832 121.72 60.9033C121.1 59.7268 120.39 58.6008 119.661 57.4903C119.244 56.8545 118.82 56.223 118.401 55.5889C118.249 55.3584 117.877 55.5744 118.03 55.8066V55.8057Z" fill="#1D1D1B"/>
<path d="M179.79 43.621C179.949 46.321 180.083 49.0227 180.176 51.7261C180.266 54.3405 180.318 56.9556 180.331 59.5717C180.339 61.1055 180.334 62.6402 180.318 64.174C180.316 64.4507 180.745 64.4516 180.747 64.174C180.776 61.4697 180.769 58.7645 180.72 56.0602C180.672 53.445 180.585 50.8298 180.464 48.2172C180.393 46.6843 180.31 45.1522 180.22 43.621C180.204 43.3459 179.773 43.3433 179.79 43.621H179.79Z" fill="#1D1D1B"/>
<path d="M205.423 43.621C205.583 46.321 205.716 49.0227 205.809 51.7261C205.899 54.3405 205.951 56.9556 205.964 59.5717C205.972 61.1055 205.967 62.6402 205.951 64.174C205.949 64.4507 206.378 64.4516 206.381 64.174C206.409 61.4697 206.402 58.7645 206.353 56.0602C206.305 53.445 206.218 50.8298 206.097 48.2172C206.026 46.6843 205.944 45.1522 205.853 43.621C205.837 43.3459 205.406 43.3433 205.424 43.621H205.423Z" fill="#1D1D1B"/>
<path d="M145.676 64.7147C146.037 63.2854 146.404 61.857 146.772 60.4286C147.119 59.0781 147.466 57.7277 147.806 56.3764C148.141 55.0448 148.471 53.7107 148.788 52.3748C149.109 51.0252 149.417 49.6722 149.708 48.3158C150.015 46.8865 150.305 45.453 150.575 44.0151C150.61 43.8292 150.644 43.6432 150.678 43.4573H150.263C150.768 44.866 151.29 46.2687 151.828 47.6654C152.365 49.0621 152.868 50.3337 153.4 51.6636C153.919 52.9635 154.443 54.2616 154.964 55.5615C155.494 56.8854 156.021 58.211 156.536 59.5417C157.072 60.9273 157.595 62.3171 158.1 63.7138C158.165 63.8938 158.23 64.0746 158.295 64.2545C158.334 64.3642 158.441 64.437 158.559 64.4045C158.665 64.3753 158.749 64.2494 158.709 64.1397C158.204 62.731 157.682 61.3283 157.145 59.9316C156.608 58.5349 156.105 57.2633 155.573 55.9334C155.054 54.6335 154.529 53.3354 154.008 52.0355C153.478 50.7116 152.951 49.386 152.437 48.0553C151.922 46.7246 151.377 45.2799 150.872 43.8832C150.807 43.7032 150.742 43.5224 150.677 43.3425C150.645 43.2525 150.569 43.1848 150.47 43.1848C150.381 43.1848 150.28 43.2508 150.263 43.3425C149.996 44.7923 149.709 46.2387 149.404 47.6808C149.115 49.0441 148.809 50.4031 148.491 51.7596C148.177 53.0963 147.851 54.4304 147.517 55.7629C147.18 57.1099 146.835 58.4543 146.49 59.7988C146.126 61.216 145.761 62.6325 145.401 64.0506C145.355 64.234 145.308 64.4173 145.262 64.6007C145.193 64.8698 145.608 64.9837 145.676 64.7155L145.676 64.7147Z" fill="#1D1D1B"/>
<path d="M146.854 59.4603C148.042 59.3061 149.252 59.3266 150.446 59.3403C151.775 59.3558 153.104 59.39 154.431 59.3198C155.116 59.2838 155.803 59.2187 156.477 59.0901C156.591 59.0687 156.656 58.9307 156.626 58.8253C156.594 58.7054 156.477 58.6531 156.362 58.6754C155.15 58.9076 153.902 58.929 152.673 58.9307C151.364 58.9325 150.056 58.8862 148.748 58.9102C148.115 58.9213 147.481 58.9487 146.852 59.0301C146.737 59.0447 146.638 59.1184 146.638 59.2452C146.638 59.3498 146.737 59.4757 146.852 59.4603H146.854Z" fill="#1D1D1B"/>
<path d="M159.483 44.5489C161.432 44.4504 163.382 44.3656 165.332 44.2919C167.221 44.2199 169.111 44.1591 171 44.1008C172.114 44.0665 173.228 44.0331 174.342 43.9997C174.619 43.9911 174.619 43.561 174.342 43.5695C172.392 43.6286 170.441 43.6861 168.49 43.7503C166.601 43.8129 164.711 43.8823 162.823 43.9628C161.709 44.0108 160.596 44.0622 159.483 44.1188C159.208 44.1325 159.206 44.5635 159.483 44.5489Z" fill="#1D1D1B"/>
<path d="M166.917 44.5532C167.019 47.129 167.061 49.7065 167.09 52.2839C167.119 54.8589 167.134 57.4329 167.184 60.007C167.211 61.4457 167.25 62.8844 167.306 64.323C167.317 64.599 167.747 64.6007 167.735 64.323C167.634 61.7473 167.592 59.1698 167.563 56.5923C167.534 54.0174 167.518 51.4434 167.469 48.8693C167.441 47.4306 167.403 45.9919 167.346 44.5532C167.335 44.2773 166.906 44.2756 166.917 44.5532Z" fill="#1D1D1B"/>
<path d="M210.578 44.5489C212.527 44.4504 214.477 44.3656 216.427 44.2919C218.317 44.2199 220.206 44.1591 222.095 44.1008C223.21 44.0665 224.323 44.0331 225.438 43.9997C225.714 43.9911 225.715 43.561 225.438 43.5695C223.487 43.6286 221.536 43.6861 219.585 43.7503C217.696 43.8129 215.806 43.8823 213.918 43.9628C212.804 44.0108 211.691 44.0622 210.578 44.1188C210.303 44.1325 210.301 44.5635 210.578 44.5489Z" fill="#1D1D1B"/>
<path d="M218.012 44.5532C218.114 47.129 218.156 49.7065 218.185 52.2839C218.214 54.8589 218.229 57.4329 218.279 60.007C218.306 61.4457 218.345 62.8844 218.401 64.323C218.413 64.599 218.842 64.6007 218.831 64.323C218.729 61.7473 218.687 59.1698 218.658 56.5923C218.629 54.0148 218.613 51.4434 218.564 48.8693C218.537 47.4306 218.498 45.9919 218.442 44.5532C218.43 44.2773 218.001 44.2756 218.012 44.5532Z" fill="#1D1D1B"/>
<path d="M128.378 43.6784C128.597 45.0451 128.796 46.4152 128.969 47.7897C129.135 49.1118 129.277 50.4366 129.39 51.7647C129.501 53.0714 129.586 54.3808 129.64 55.6918C129.696 57.0182 129.722 58.3464 129.719 59.6745C129.716 61.0027 129.684 62.4362 129.627 63.8158C129.619 63.9915 129.611 64.1663 129.603 64.3419C129.591 64.6187 130.02 64.6178 130.033 64.3419C130.098 62.9469 130.137 61.5502 130.147 60.1535C130.155 58.8211 130.136 57.4886 130.088 56.1579C130.04 54.8409 129.962 53.5247 129.856 52.2103C129.75 50.8958 129.613 49.5514 129.451 48.2258C129.283 46.842 129.089 45.4615 128.874 44.0845C128.847 43.9114 128.819 43.7375 128.792 43.5644C128.774 43.4496 128.63 43.3853 128.528 43.4145C128.405 43.4479 128.359 43.5644 128.378 43.6792V43.6784Z" fill="#1D1D1B"/>
<path d="M102.711 48.2361C102.656 47.5206 102.506 46.8145 102.192 46.1659C101.925 45.6141 101.534 45.1239 101.063 44.7323C100.563 44.315 99.9916 43.9997 99.3938 43.7452C98.7062 43.453 97.986 43.2208 97.2599 43.0434C95.7093 42.6638 94.0433 42.8206 92.5688 43.4205C91.0943 44.0203 89.749 45.0896 88.8937 46.4872C87.8631 48.1718 87.4791 50.1829 87.344 52.1289C87.2696 53.1957 87.285 54.2694 87.3876 55.3345C87.4902 56.3995 87.6493 57.3764 87.935 58.3601C88.2001 59.2735 88.5875 60.1604 89.1682 60.9187C89.7096 61.6265 90.3853 62.2117 91.1277 62.7001C91.8692 63.1886 92.6714 63.5759 93.4899 63.9161C94.423 64.3051 95.3903 64.653 96.4029 64.7472C96.9084 64.7944 97.3968 64.7464 97.8945 64.6615C98.2691 64.5981 98.6429 64.5322 99.0124 64.4422C99.6547 64.2845 100.258 64.0266 100.79 63.6299C101.433 63.1509 102.019 62.5673 102.413 61.8638C102.806 61.1603 103.024 60.3515 103.133 59.5468C103.193 59.1047 103.227 58.6608 103.243 58.2153C103.254 57.9385 102.823 57.9385 102.814 58.2153C102.758 59.7739 102.486 61.4251 101.342 62.5759C100.856 63.0643 100.319 63.509 99.6795 63.779C99.4289 63.8844 99.1081 63.9786 98.8199 64.0463C98.4599 64.1311 98.0955 64.1945 97.7303 64.2554C97.2539 64.3359 96.7852 64.3608 96.3037 64.3076C95.8222 64.2545 95.3313 64.1268 94.8635 63.976C94.0133 63.701 93.1786 63.3479 92.3849 62.9358C91.6374 62.5476 90.919 62.0909 90.2963 61.5185C89.6737 60.9461 89.1357 60.2144 88.7714 59.4115C88.3848 58.5614 88.1642 57.6394 88.0051 56.7226C87.8289 55.708 87.7374 54.6789 87.728 53.6498C87.71 51.7287 87.9281 49.7288 88.6482 47.9336C88.9647 47.1444 89.4 46.3912 89.9645 45.7537C90.4674 45.1856 91.0592 44.7041 91.7118 44.3193C93.0221 43.5481 94.5616 43.1728 96.0788 43.2876C96.8195 43.3442 97.5353 43.5464 98.2392 43.7743C98.8695 43.9783 99.4776 44.2165 100.051 44.5498C100.556 44.8429 100.992 45.1873 101.363 45.6492C101.523 45.8471 101.693 46.1205 101.816 46.3732C101.948 46.6432 102.049 46.9379 102.126 47.243C102.207 47.5694 102.256 47.9019 102.281 48.237C102.29 48.3526 102.374 48.452 102.496 48.452C102.605 48.452 102.72 48.3535 102.711 48.237V48.2361Z" fill="#1D1D1B"/>
<path d="M137.882 43.1839C136.577 43.2088 135.274 43.2379 133.97 43.2739C133.005 43.3005 132.04 43.3296 131.075 43.3527C130.245 43.3724 129.415 43.3904 128.585 43.4059C128.309 43.411 128.308 43.842 128.585 43.836C129.87 43.8112 131.156 43.7829 132.441 43.7469C133.411 43.7203 134.381 43.6912 135.351 43.6681C136.194 43.6475 137.037 43.6304 137.882 43.6141C138.158 43.6089 138.159 43.1779 137.882 43.1839Z" fill="#1D1D1B"/>
<path d="M140.246 63.8338C138.846 63.7978 137.446 63.7781 136.046 63.8029C134.807 63.8252 133.568 63.8852 132.332 63.9606C131.494 64.012 130.655 64.0694 129.817 64.1268C129.702 64.1346 129.603 64.2202 129.603 64.3419C129.603 64.4525 129.701 64.5656 129.817 64.557C131.214 64.461 132.611 64.3633 134.01 64.2991C135.248 64.2417 136.487 64.2168 137.726 64.2228C138.566 64.2271 139.406 64.2425 140.246 64.2639C140.522 64.2708 140.522 63.8407 140.246 63.8338Z" fill="#1D1D1B"/>
<path d="M129.822 55.2102C131.565 55.2265 133.307 55.2385 135.048 55.253C135.516 55.2565 135.985 55.2608 136.452 55.265C136.729 55.2676 136.73 54.8375 136.452 54.8349C134.71 54.8186 132.968 54.8066 131.227 54.792C130.759 54.7886 130.29 54.7843 129.822 54.78C129.546 54.7775 129.545 55.2076 129.822 55.2102Z" fill="#1D1D1B"/>
<path d="M136.588 36.532C135.914 36.9305 135.212 37.2869 134.51 37.634C133.697 38.0358 132.872 38.424 132.032 38.7582C131.666 38.9047 131.294 39.0461 130.91 39.1438C130.643 39.2123 130.756 39.6279 131.025 39.5594C131.796 39.3614 132.539 39.023 133.262 38.6982C134.107 38.3186 134.941 37.9107 135.761 37.4797C136.113 37.2946 136.464 37.1061 136.806 36.9039C137.043 36.7634 136.828 36.3906 136.588 36.532Z" fill="#1D1D1B"/>
<path d="M229.626 43.6784C229.845 45.0451 230.044 46.4152 230.217 47.7897C230.383 49.1118 230.525 50.4366 230.638 51.7647C230.749 53.0714 230.834 54.3808 230.888 55.6918C230.944 57.0182 230.969 58.3464 230.967 59.6745C230.964 61.0558 230.932 62.4362 230.875 63.8158C230.867 63.9915 230.859 64.1663 230.851 64.3419C230.839 64.6187 231.268 64.6178 231.281 64.3419C231.346 62.9469 231.385 61.5502 231.395 60.1535C231.403 58.8211 231.384 57.4886 231.336 56.1579C231.288 54.8409 231.21 53.5247 231.104 52.2103C230.998 50.8958 230.861 49.5514 230.699 48.2258C230.531 46.842 230.337 45.4615 230.122 44.0845C230.095 43.9114 230.067 43.7375 230.04 43.5644C230.022 43.4496 229.878 43.3853 229.776 43.4145C229.653 43.4479 229.607 43.5644 229.626 43.6792V43.6784Z" fill="#1D1D1B"/>
<path d="M239.13 43.1839C237.825 43.2088 236.522 43.2379 235.218 43.2739C234.253 43.3005 233.288 43.3296 232.323 43.3527C231.493 43.3724 230.663 43.3904 229.833 43.4059C229.557 43.411 229.556 43.842 229.833 43.836C231.118 43.8112 232.404 43.7829 233.689 43.7469C234.659 43.7203 235.629 43.6912 236.599 43.6681C237.442 43.6475 238.285 43.6304 239.13 43.6141C239.406 43.6089 239.407 43.1779 239.13 43.1839Z" fill="#1D1D1B"/>
<path d="M241.494 63.8338C240.094 63.7978 238.694 63.7781 237.294 63.8029C236.055 63.8252 234.816 63.8852 233.58 63.9606C232.742 64.012 231.903 64.0694 231.065 64.1268C230.95 64.1346 230.851 64.2202 230.851 64.3419C230.851 64.4525 230.949 64.5656 231.065 64.557C232.462 64.461 233.859 64.3633 235.258 64.2991C236.496 64.2417 237.735 64.2168 238.974 64.2228C239.814 64.2271 240.654 64.2425 241.494 64.2639C241.77 64.2708 241.77 63.8407 241.494 63.8338Z" fill="#1D1D1B"/>
<path d="M231.07 55.2102C232.813 55.2265 234.555 55.2385 236.296 55.253C236.764 55.2565 237.233 55.2608 237.7 55.265C237.977 55.2676 237.978 54.8375 237.7 54.8349C235.958 54.8186 234.216 54.8066 232.475 54.792C232.007 54.7886 231.538 54.7843 231.07 54.78C230.794 54.7775 230.793 55.2076 231.07 55.2102Z" fill="#1D1D1B"/>
<path d="M237.836 36.532C237.162 36.9305 236.46 37.2869 235.758 37.634C234.945 38.0358 234.12 38.424 233.28 38.7582C232.914 38.9047 232.541 39.0461 232.158 39.1438C231.891 39.2123 232.004 39.6279 232.273 39.5594C233.044 39.3614 233.787 39.023 234.51 38.6982C235.355 38.3186 236.189 37.9107 237.009 37.4797C237.361 37.2946 237.712 37.1061 238.054 36.9039C238.291 36.7634 238.076 36.3906 237.836 36.532Z" fill="#1D1D1B"/>
<path d="M199.564 43.5635C199.184 44.98 198.769 46.387 198.331 47.7871C197.92 49.0998 197.491 50.4057 197.059 51.7116C196.627 53.0175 196.21 54.2745 195.803 55.5615C195.39 56.864 194.996 58.1716 194.637 59.4894C194.257 60.8827 193.916 62.2863 193.621 63.7001C193.582 63.8886 193.543 64.0771 193.505 64.2657H193.92C193.444 62.8715 192.967 61.4765 192.491 60.0824C192.046 58.7808 191.602 57.4783 191.157 56.1768C190.712 54.8752 190.296 53.6558 189.865 52.3954C189.422 51.1015 188.98 49.8076 188.538 48.5137C188.067 47.135 187.596 45.7563 187.125 44.3776C187.064 44.1968 187.001 44.016 186.94 43.8343C186.902 43.7246 186.792 43.6518 186.675 43.6844C186.568 43.7135 186.487 43.8386 186.526 43.9491C187.002 45.3433 187.478 46.7383 187.955 48.1324C188.4 49.434 188.844 50.7365 189.289 52.038C189.72 53.2985 190.15 54.559 190.581 55.8194C191.023 57.1133 191.466 58.4072 191.908 59.7011C192.379 61.0798 192.85 62.4585 193.321 63.8372C193.382 64.018 193.445 64.1988 193.506 64.3805C193.568 64.5621 193.876 64.6041 193.921 64.3805C194.208 62.9435 194.542 61.5168 194.918 60.1012C195.271 58.7748 195.659 57.4586 196.069 56.1485C196.472 54.8606 196.895 53.5787 197.318 52.2977C197.742 51.0167 198.178 49.6996 198.591 48.3946C199.027 47.0159 199.444 45.6303 199.828 44.2353C199.879 44.0494 199.929 43.8643 199.979 43.6784C200.051 43.4102 199.637 43.2962 199.564 43.5635Z" fill="#1D1D1B"/>
</g>
<defs>
<clipPath id="clip0_47_89">
<rect width="329" height="65" fill="white"/>
</clipPath>
</defs>
</svg>
