<?xml version="1.0" encoding="UTF-8"?>
<svg id="Calque_1" xmlns="http://www.w3.org/2000/svg" version="1.1" xmlns:xlink="http://www.w3.org/1999/xlink" viewBox="0 0 198 151">
  <!-- Generator: Adobe Illustrator 29.6.1, SVG Export Plug-In . SVG Version: 2.1.1 Build 9)  -->
  <defs>
    <style>
      .st0 {
        fill: #fff;
      }

      .st1 {
        fill: #1e1e1e;
      }

      .st2 {
        fill: #000091;
      }

      .st2, .st3 {
        fill-rule: evenodd;
      }

      .st4 {
        fill: #c4c4c4;
      }

      .st5 {
        fill: #e1000f;
      }

      .st6 {
        fill: gray;
      }
    </style>
    <mask id="mask" x="18" y="20" width="57" height="20" maskUnits="userSpaceOnUse">
      <g id="mask0">
        <rect class="st4" x="18" y="20" width="57" height="20"/>
      </g>
    </mask>
    <mask id="mask-1" x="18" y="94" width="54" height="37" maskUnits="userSpaceOnUse">
      <g id="mask1">
        <rect class="st4" x="18" y="94" width="54" height="37"/>
      </g>
    </mask>
  </defs>
  <rect class="st0" x="20" y="20" width="55" height="20"/>
  <path class="st2" d="M42.74,37.64c.21-.21.43-.45.65-.68.38-.46.81-.89,1.26-1.29.13-.12.27-.23.41-.33.02-.02.03-.05.04-.08,0-.03.02-.06.04-.08-.09.04-.17.09-.25.15-.08.06-.15.11-.25.15-.04,0-.08-.04-.04-.08l.4-.3s-.02,0-.03,0c-.04,0-.04-.04-.04-.08-.49-.07-.86.26-1.2.56h0c-.05.03-.1,0-.14-.01-.02,0-.04-.02-.05-.02-.3.1-.55.28-.81.46h0c-.23.17-.47.33-.74.44v-.08c-.09.03-.19.07-.28.12-.13.06-.26.12-.4.15-.26.06-.49.05-.72.04h0c-.08,0-.15,0-.23,0-.46.06-.92.14-1.37.24h-.02s0,0,0,0h-.01c-.25.07-.48.16-.7.29,0,0-.02,0-.03.01-.02.02-.04.05-.05.07-.07.09-.16.17-.26.23-.16.08-.31.21-.45.34-.06.05-.12.1-.18.15-.02.01-.04.02-.06.02-.06.06-.12.12-.19.18h0s0,0,0,0h0c-.14.14-.28.27-.42.4-.04.02-.08.02-.12.01.01-.02.02-.03.03-.04.03-.05.06-.11.1-.16.04-.06.07-.12.11-.18.05-.08.1-.16.16-.23.01-.01.01-.04,0-.05-.01-.01-.03-.02-.05-.02.19-.18.41-.34.63-.47-.03,0-.06-.02-.04-.04.01-.02.03-.04.04-.06,0-.01.02-.03.03-.04,0-.01,0-.02.01-.03,0,0-.01-.01-.02-.02h-.01c-.06.03-.12.07-.18.11-.03.02-.05.06-.08.09h0c-.06.08-.12.16-.22.16-.02,0-.04,0-.06,0-.01,0-.03,0-.04-.01h0s0-.02,0-.02h0s.02-.04.02-.04v-.02s.02-.02.02-.02v-.03s.03-.03.04-.05h0s0-.02,0-.02h0s.02-.05.03-.07h0s.01-.03.01-.03l.02-.04.02-.03h0s0,0,0,0h0s0,0,0,0v-.02s.02-.02.02-.02c0-.01,0-.03,0-.04,0-.01-.02-.02-.03-.03.07-.09.16-.17.26-.23h-.01c.1-.05.2-.11.3-.17h0s0,0,0,0c.04-.03.09-.05.13-.08.01-.01.03-.02.04-.04l.02-.02c-.21.07-.42.17-.6.3-.02,0-.04.02-.06.03-.04,0-.07,0-.09-.03,0,0,0-.02,0-.03.02-.04.07-.08.12-.11.04-.02.07-.05.11-.08.04,0,.08,0,.08.04.75-.59,1.68-.72,2.6-.86.57-.08,1.14-.17,1.67-.35l.34-.23c.1-.04.18-.11.28-.18.09-.07.18-.14.29-.2.31-.21.53-.52.64-.87,0-.03-.02-.06-.04-.08-.47.51-1.04.93-1.66,1.25-.57.3-1.18.34-1.79.39-.24.02-.47.03-.7.07.04-.08.11-.08.19-.08,0-.09.05-.13.1-.18.02-.01.03-.03.05-.04h.11s.03-.02.04-.04c0-.02.02-.04.04-.04.08,0,.19-.04.15-.04-.06-.08-.14-.05-.24-.01-.09.03-.2.07-.29.01.04-.04.05-.08.06-.12,0-.04.02-.08.06-.1h.15c0-.06.03-.11.08-.15.34-.2.66-.38.98-.55.22-.12.43-.23.65-.36-.04,0-.08.02-.12.03-.06.03-.11.05-.18,0,.04,0,.04-.03.04-.06s0-.06.04-.06c.24-.06.45-.17.67-.27.16-.08.33-.16.5-.22-.05,0-.1.01-.15.03-.09.02-.17.05-.27-.03.03-.01.05-.03.07-.05.04-.03.08-.07.16-.07v-.11s.04-.04.08-.04c-.03,0-.06-.02-.08-.04.02-.04.06-.05.1-.06.04,0,.09-.02.12-.06-.04,0-.11,0-.11-.04.11-.15.3-.19.49-.23-.02-.04-.06-.04-.09-.04s-.06,0-.06-.04.04-.04.08-.04h-.08c-.06-.03-.05-.08-.04-.12h0s0-.02,0-.03c.15-.18.2-.39.25-.6.03-.1.05-.21.09-.31-.04,0-.08,0-.08-.04-.37.4-.95.56-1.5.7h-.05s-.19.01-.19.01c-.21.08-.44.07-.64-.04-.09-.05-.16-.11-.22-.17-.05-.04-.09-.09-.15-.13-.3-.19-.61-.34-.94-.45-.94-.31-1.92-.45-2.91-.42.27-.15.56-.21.85-.27.16-.03.31-.06.47-.11.09-.03.19-.06.28-.08.54-.17,1.07-.33,1.65-.29-.08-.03-.17-.02-.26,0-.04,0-.08,0-.12,0-.43-.03-.85.06-1.3.16-.11.02-.22.05-.33.07-.19.04-.37.09-.55.15-.18.06-.36.11-.55.15-.09.03-.16.08-.23.13-.11.08-.22.16-.38.13v-.11c.38-.45.83-.91,1.44-.94.57-.1,1.12-.03,1.69.04h0c.1.01.21.03.31.04.48.05.96.14,1.44.26.1,0,.16.09.22.18.05.07.09.14.16.16.09.03.18.04.27.04.14,0,.27.02.41.11,0-.03,0-.05,0-.08,0-.05-.02-.1,0-.15.09-.09.18-.06.28-.04.07.02.15.03.21,0,.21-.13.01-.33-.18-.52-.09-.09-.18-.19-.23-.27,0-.03.02-.06.04-.08.09.08.17.16.26.24.19.19.38.38.65.51.19.08.64.19.57-.04-.13-.29-.36-.55-.58-.8-.1-.11-.19-.22-.28-.33v-.15c-.06,0-.07-.02-.09-.05,0,0-.01-.02-.02-.03v-.15c-.1-.05-.12-.12-.14-.2-.01-.05-.02-.09-.05-.14-.06-.11-.07-.23-.07-.37,0-.11,0-.21-.04-.31-.07-.21-.12-.42-.15-.64-.04-.25-.09-.49-.14-.73h0c-.08-.37-.15-.72-.2-1.09-.06-.55.22-1.02.51-1.49.09-.14.17-.29.25-.43.26-.45.57-.91,1.06-1.21.11-.45.41-.83.72-1.21h0c.3-.37.8-.6,1.17-.76.33-.15.66-.27,1-.38h-25.94v20h18.37c.5-.36,1-.59,1.6-.86.26-.12.54-.25.84-.4.06-.03.13-.06.2-.1h0s0,0,0,0h0c.53-.26,1.4-.68,1.72-1ZM36.74,34.9c.03-.13.16-.17.3-.21.06-.02.11-.03.16-.05h.02s.02-.02.02-.02h0c.07-.04.16-.09.23-.06.04.06.1.08.15.1.04.01.08.02.11.06-.14.14-.3.15-.47.16-.11,0-.22.02-.33.06-.02,0-.04,0-.06,0-.07,0-.15.01-.12-.04ZM32.32,32.1c-.34.68-.74,1.33-1.21,1.93,0,.03.02.06.04.08.91-1.02,1.74-1.89,2.91-2.61.03-.01.02,0,0,.02-.02.03-.06.08.03.06.39-.09.57-.42.74-.75.04-.08.09-.16.13-.24.18-.29.43-.47.68-.65.18-.13.37-.27.53-.44,0,.04,0,.08-.04.11.03.03.07.04.11.04.07-.05.14-.07.21-.09.09-.03.18-.05.24-.14-.31-.13-.66-.14-.98-.04-.79.38-1.47.98-2.12,1.66-.39.41-.79.79-1.28,1.06ZM34.17,31.76c-.03.07-.08.12-.15.15-.04,0-.08,0-.08-.04.03-.16.15-.29.3-.34.04,0,.04.04.04.08-.02.04-.04.06-.06.08-.02.02-.04.04-.05.07ZM35.99,37.44s0-.05-.05-.06c.04-.03.07-.07.09-.11.03-.07-.17-.06-.2-.03-.03.02-.06.05-.08.08-.05.05-.1.1-.16.15-.04.04-.08.08-.12.12-.05.05-.1.1-.16.15-.06.06.14.09.19.05.05-.04.09-.09.14-.13.02,0,.04,0,.06,0,.11-.05.21-.11.29-.2ZM35.35,36.96l-.04.03c-.13.09-.25.18-.39.26-.12.07-.24.13-.37.18-.04.02-.09.04-.13.06,0,0,0,0,0,0-.01-.02-.04-.03-.06-.02-.14.08-.27.18-.38.29-.02.02-.04.03-.05.05-.02.02-.04.04-.06.06h0s0,0,0,0h0s-.05.06-.08.09c-.01.02-.03.04-.05.05-.02.02-.09.02-.08-.03h0s0,0,0,0c-.02.01-.04.02-.06.03-.02,0-.04.02-.05.03h0s-.02,0-.03,0c0,0-.02,0-.03,0-.05.04-.09.07-.14.12-.08.07-.15.15-.22.23h-.01s-.01.03-.01.03c0,0,0,.01-.01.02h0s0,.01,0,.01v.02s-.02.01-.02.01c0,.01-.02.02-.03.02h0s0-.02,0-.02h0s0-.02,0-.02c-.01-.02-.02-.04-.03-.06h0s0-.01,0-.01h0c.04-.05.08-.1.12-.15h0s.03-.04.04-.06l.06-.08s0-.01.01-.02h0c.04-.07.08-.12.12-.17h0s0-.01,0-.01c0,0,0,0,0-.01.02-.03.04-.05.05-.08.01-.02.03-.05.04-.08h0s0-.01,0-.01c0,0,0,0,0,0,0,0,0,0,0,0,.01-.03.03-.06.04-.09h0s0-.02,0-.02c0,0,0-.01,0-.02,0-.01,0-.03.01-.04,0,0,0,0,0,0h0s0-.04,0-.06c0,0,0-.02,0-.03.04-.07.09-.14.15-.2,0,0,0,0,0,0h0s0,0,0,0c-.03.02-.05.04-.08.07-.02.02-.04.04-.06.05-.04.03-.12-.02-.07-.06.03-.02.06-.05.09-.08.06-.07.13-.14.2-.2h.02s.07-.06.1-.09c0,0,0,0,.01-.01h0s.05-.07.08-.1h0s0,0,0,0c.22-.21.53-.29.85-.37.2-.05.41-.1.59-.19.11-.04.22-.03.34,0,.09.01.18.03.27,0,.12-.01.24.02.34.08-.26.14-.51.3-.75.45-.07.05-.14.09-.21.13h0ZM35.98,34.25h.3s-.08.05-.12.05c-.03,0-.05,0-.03.02.11.11.34.08.49,0,.11-.06.25-.09.38-.08.04,0,.04-.08.04-.11.1.03.2.04.3.04.91-.19,1.78-.38,2.61-.79-.84-.65-1.87-.93-2.88-1.21h0c-.17-.05-.35-.1-.52-.15.04,0,.08.01.11.03.08.03.15.05.23-.03-.1-.08-.22-.1-.33-.11-.09-.01-.19-.02-.27-.08,0,0,.02,0,.03,0,.04,0,.09.02.12-.04-.2-.1-.4-.13-.6-.17h0c-.1-.02-.2-.03-.3-.06.18-.03.31-.19.3-.38,0-.04-.08-.04-.11-.04-.45.23-.76.64-.94,1.13.17.1.35.09.53.07.1,0,.2-.01.3,0-.08.08-.21.11-.33.13-.04,0-.08.01-.12.02-.12.03-.23.11-.19.19.02.03.05.05.09.05-.09.02-.17.07-.24.13.11.08.22.07.32.05.04,0,.09-.01.13-.01,0,.05.03.07.07.08h0s.03.02.05.03c-.17.06-.3.18-.38.34-.05.11-.13.19-.22.26h0c-.06.05-.11.1-.16.16v.11c-.13.12-.26.22-.39.32h0c-.26.2-.5.39-.7.66.04,0,.04.04.04.08-.03.05-.08.09-.13.12-.06.04-.11.08-.13.14,0,.04,0,.08.04.08.24-.08.44-.21.65-.34.18-.12.36-.23.56-.3.16-.04.3-.11.44-.18.12-.06.23-.12.36-.16.09-.02.2-.05.3-.08h0c.1-.03.21-.06.3-.08,0,.04,0,.08.04.08ZM37.72,37.58s0,0,0,0h0c.05-.04.11-.09.15-.15,0,0,0,0,0,0,0,0,0,0,0,0-.05.05-.1.11-.15.17ZM45.1,35.1l-.08.06s.08-.01.08-.06Z"/>
  <path class="st5" d="M75,20h-21.51c.07.02.14.06.2.09.17.09.4.21.54.29.29.13.54.34.72.6.08.11.19.34.11.49-.08.19-.11.49-.3.57-.23.11-.53.11-.79.08-.15,0-.31-.03-.45-.08.57.23,1.1.49,1.47,1.02.04.08.19.11.34.11.04,0,.04.08.04.11-.08.08-.15.11-.11.23h.11c.19-.08.15-.45.42-.34.19.12.26.37.15.57-.14.14-.29.26-.45.38-.04.08-.04.18,0,.26.09.14.16.29.19.45.11.26.15.57.26.83.15.57.3,1.13.26,1.7,0,.3-.15.57-.04.87.08.3.26.53.42.79.15.23.3.38.42.6.23.38.64.76.45,1.21-.11.26-.53.23-.79.38-.23.19-.04.49.08.68.19.34-.23.57-.49.68.08.11.23.08.26.15.04.19.23.3.11.49-.15.23-.6.34-.38.68.15.26.05.56-.04.83-.11.34-.42.49-.68.57-.23.07-.48.08-.72.04-.07-.04-.15-.07-.23-.08-.64-.08-1.29-.26-1.93-.26-.18.03-.36.08-.53.15-.16.12-.32.26-.46.4h0s-.06.07-.08.1c-.02.02-.03.04-.05.06-.01.01-.02.03-.03.04-.11.14-.21.28-.3.44,0,0-.01.02-.02.03,0,.02-.02.04-.03.05-.12.22-.21.45-.29.69-.26.87-.14,1.61.04,1.79.05.05,1.25.42,2.08.79.31.13.61.28.89.45h21.13v-20Z"/>
  <path class="st6" d="M54.77,27.3c.15.04.38.04.38.11-.08.3-.53.38-.76.68h-.11c-.11.08-.08.26-.19.26-.11-.03-.23-.01-.34.04.15.15.34.26.57.23.07.02.11.08.11.15.03,0,.06-.02.08-.04.04,0,.08,0,.08.04v.15c-.11.15-.3.08-.45.11.28.08.58.08.87,0,.23-.08,0-.45.15-.64-.08,0,0-.11-.08-.11.08-.08.15-.19.23-.23.09,0,.17-.04.23-.11,0-.08-.15-.11-.11-.19.23-.15.42-.38.34-.6-.04-.11-.34-.11-.53-.19-.19-.08-.42,0-.64.04-.19,0-.38.11-.57.15-.26.09-.5.22-.72.38.27-.1.55-.17.83-.23.23,0,.42-.06.64,0Z"/>
  <path class="st1" d="M20.06,65h2.84v-10.04l3.12,5.24h2l3.12-5.24v10.04h2.84v-14h-3.54l-3.42,5.88-3.42-5.88h-3.54v14ZM38.19,65h2.84v-14h-2.84v14ZM45.24,65h2.84v-10.12l6.26,10.12h3.64v-14h-2.84v10.12l-6.26-10.12h-3.64v14ZM62.2,65h2.84v-14h-2.84v14ZM67.99,63.06c1.24,1.48,2.82,2.34,5.18,2.34,2.58,0,4.62-1.58,4.66-4.22,0-4.8-6.36-4.08-6.36-6.62,0-.84.66-1.48,1.66-1.48,1.06,0,1.98.7,2.8,1.76l2.08-1.88c-1.2-1.42-2.8-2.36-4.9-2.36-2.68,0-4.52,1.84-4.52,4.06,0,4.74,6.36,4.04,6.36,6.62,0,1-.68,1.6-1.8,1.6s-2.26-.64-3.1-1.72l-2.06,1.9ZM79.57,53.58h4.32v11.42h2.84v-11.42h4.32v-2.58h-11.48v2.58ZM96.66,49.8h2.6l-2.26-2.7h-2.92l2.58,2.7ZM93.84,65h8.16v-2.36h-5.32v-3.6h4.52v-2.36h-4.52v-3.32h5.32v-2.36h-8.16v14ZM105.6,65h2.84v-5.66h1.46l3.74,5.66h3.34l-4.38-6.2c1.44-.66,2.26-1.92,2.26-3.62,0-2.6-1.9-4.18-4.98-4.18h-4.28v14ZM110.04,53.36c1.2,0,1.9.72,1.9,1.78,0,1.14-.7,1.84-1.9,1.84h-1.6v-3.62h1.6ZM119.08,65h8.16v-2.36h-5.32v-3.6h4.52v-2.36h-4.52v-3.32h5.32v-2.36h-8.16v14ZM20.06,86h5.5c4.44,0,7.44-3.22,7.44-7s-3-7-7.44-7h-5.5v14ZM25.6,74.58c2.6,0,4.48,1.92,4.48,4.42s-1.88,4.42-4.48,4.42h-2.7v-8.84h2.7ZM36.04,86h8.16v-2.36h-5.32v-3.6h4.52v-2.36h-4.52v-3.32h5.32v-2.36h-8.16v14ZM53.29,86h8.16v-2.58h-5.32v-11.42h-2.84v14ZM63.5,77.76l2.32-5.76h-2.88l-1.8,5.76h2.36ZM68.33,86h2.84v-14h-2.84v14ZM75.39,86h2.84v-10.12l6.26,10.12h3.64v-14h-2.84v10.12l-6.26-10.12h-3.64v14ZM90.9,74.58h4.32v11.42h2.84v-11.42h4.32v-2.58h-11.48v2.58ZM110.52,70.8l2.6-2.7h-2.92l-2.26,2.7h2.58ZM105.18,86h8.16v-2.36h-5.32v-3.6h4.52v-2.36h-4.52v-3.32h5.32v-2.36h-8.16v14ZM116.94,86h2.84v-5.66h1.46l3.74,5.66h3.34l-4.38-6.2c1.44-.66,2.26-1.92,2.26-3.62,0-2.6-1.9-4.18-4.98-4.18h-4.28v14ZM121.38,74.36c1.2,0,1.9.72,1.9,1.78,0,1.14-.7,1.84-1.9,1.84h-1.6v-3.62h1.6ZM130.41,86h2.84v-14h-2.84v14ZM137.47,86h8.16v-2.36h-5.32v-3.6h4.52v-2.36h-4.52v-3.32h5.32v-2.36h-8.16v14ZM157.41,80.76c0,1.88-1.08,2.98-2.82,2.98s-2.84-1.1-2.84-2.98v-8.76h-2.84v8.52c0,3.68,2.16,5.88,5.66,5.88s5.68-2.2,5.68-5.88v-8.52h-2.84v8.76ZM164.07,86h2.84v-5.66h1.46l3.74,5.66h3.34l-4.38-6.2c1.44-.66,2.26-1.92,2.26-3.62,0-2.6-1.9-4.18-4.98-4.18h-4.28v14ZM168.51,74.36c1.2,0,1.9.72,1.9,1.78,0,1.14-.7,1.84-1.9,1.84h-1.6v-3.62h1.6Z"/>
  <path class="st3" d="M71.96,121.7l-1.86,1.7h-.48l1.1-1.94h1.24v.24ZM70.62,128.28h-.4c-.5.6-1.06,1.08-1.6,1.08s-.84-.34-.84-1.08c0-.3.04-.62.1-.9l3.26-1.08c.64-1.52-.12-2.18-1.02-2.18-1.54,0-3.3,2.7-3.3,4.86,0,1.02.48,1.58,1.24,1.58.88-.02,1.8-.88,2.56-2.28ZM69.5,125c.44,0,.82.34.62,1.12l-2.02.54c.32-.96.92-1.66,1.4-1.66ZM63.14,125.04h1.08l-1.72,4.72c-.16.4.06.8.48.8,1.22,0,2.68-1.04,3.24-2.52h-.3c-.44.62-1.4,1.3-2.12,1.42l1.58-4.42h1.62l.2-.68h-1.58l.6-1.7h-.62l-1.12,1.7-1.34.18v.5ZM61.64,124.14c.22,0,.52.24.38.68l-1.94,4.7c.5-.08,1.02-.56,1.32-1h.32c-.46,1.18-1.5,2.04-2.4,2.04-.22,0-.54-.24-.38-.68l1.8-4.7c-.5.08-1.02.56-1.32,1h-.3c.46-1.2,1.58-2.04,2.52-2.04ZM62.2,122.94c.4,0,.74-.32.74-.74s-.34-.74-.74-.74c-.42,0-.74.34-.74.74s.34.74.74.74ZM53.46,126.84c.44-.96.28-1.4,0-1.4-.24,0-.52.26-.8.74h-.3c.46-1.02,1.06-2.04,1.72-2.04.56,0,.76.56.76,1.18v.88c.09-.11.18-.21.27-.31h0c.84-.99,1.49-1.75,2.23-1.75.58,0,.88.36.88.9,0,.32-.1.72-.32,1.14l-1.66,3.34c.5-.08,1.02-.56,1.32-1h.3c-.46,1.2-1.58,2.04-2.52,2.04-.42,0-.66-.44-.48-.8l1.92-3.7c.22-.42.26-.7-.08-.7-.46,0-1.54.76-2.12,1.46l-1.26,3.32c-.14.34-.28.42-.6.42-.52,0-.78-.34-.54-.88l1.28-2.84ZM52.16,125.56c.22-.76.1-1.44-.48-1.44-.72,0-.95.48-1.65,1.96l-.05.1v-.88c0-.62-.2-1.18-.76-1.18-.66,0-1.26,1.02-1.72,2.04h.3c.32-.46.62-.74.86-.74.28,0,.44.44,0,1.4l-1.28,2.84c-.24.54.02.88.54.88.32,0,.46-.08.6-.42l1.26-3.32c.36-.44.68-.82,1.08-1.24h1.3ZM45.84,126.12c.2-.78-.18-1.12-.62-1.12-.48,0-1.08.7-1.4,1.66l2.02-.54ZM46.34,128.28h-.4c-.5.6-1.06,1.08-1.6,1.08s-.84-.34-.84-1.08c0-.3.04-.62.1-.9l3.26-1.08c.64-1.52-.12-2.18-1.02-2.18-1.54,0-3.3,2.7-3.3,4.86,0,1.02.48,1.58,1.24,1.58.88-.02,1.8-.88,2.56-2.28ZM39.94,125.04h-1.08v-.5l1.34-.18,1.12-1.7h.62l-.6,1.7h1.58l-.2.68h-1.62l-1.58,4.42c.72-.12,1.68-.8,2.12-1.42h.3c-.56,1.48-2.02,2.52-3.24,2.52-.42,0-.64-.4-.48-.8l1.72-4.72ZM33.14,128.7c0-1.46,1.62-3.42,2.52-3.42.2,0,.4.02.56.08l-.94,2.52c-.54.66-1.38,1.46-1.78,1.46-.22,0-.36-.2-.36-.64ZM37.6,123.82l.5.04-1.74,4c-.42.96-.24,1.4,0,1.4s.54-.28.86-.74h.3c-.46,1.02-1.06,2.04-1.72,2.04-.56,0-.9-.6-.8-1.68l.04-.38-.11.15c-.72,1-1.36,1.91-2.03,1.91-.58,0-.88-.36-.88-.9,0-2.32,2.54-5.28,4.92-5.28h.1l.56-.56ZM33.02,125.56c.22-.76.1-1.44-.48-1.44-.72,0-.95.48-1.65,1.96l-.05.1v-.88c0-.62-.2-1.18-.76-1.18-.66,0-1.26,1.02-1.72,2.04h.3c.32-.46.62-.74.84-.74.28,0,.44.44,0,1.4l-1.28,2.86c-.24.54.02.88.54.88.32,0,.46-.08.6-.42l1.26-3.32c.36-.44.68-.82,1.08-1.24h1.32v-.02ZM24.78,129.96l-.12.36h-4.66l.12-.38c1.44-.26,1.68-.38,2.28-2l1.3-3.48c.58-1.62.46-1.74-.8-2l.12-.36h6.06l-.36,1.94h-.44c0-1.16-.12-1.46-1.22-1.46h-.28c-1.08,0-1.22.16-1.52,1l-.86,2.34h1.26c.84,0,1.16-.52,1.54-1.2h.44l-1.04,2.84h-.44c.1-.86.1-1.2-.68-1.2h-1.26l-.58,1.6c-.63,1.67-.45,1.7,1.05,1.98.03,0,.06.01.09.02Z"/>
  <path class="st3" d="M28.74,106.4l-1.86,1.34v.02h-.48l1.1-1.6h1.24v.24ZM41.74,115.78l2.98-7.92-.1-.12-2.06.24v.24l.4.3c.34.27.25.51-.03,1.29l-.05.13-2.28,6.08c-.18.36.06.8.48.8.94,0,1.94-.86,2.4-2.04h-.3c-.32.44-.96.92-1.44,1ZM55.4,109.68l1.86-1.7v-.24h-1.24l-1.1,1.94h.48ZM55.52,114.54h.4c-.74,1.42-1.66,2.28-2.54,2.28-.76,0-1.24-.56-1.24-1.58,0-2.16,1.76-4.86,3.3-4.86.88,0,1.66.66,1.02,2.18l-3.28,1.08c-.06.28-.1.6-.1.9,0,.74.28,1.08.84,1.08s1.1-.48,1.6-1.08ZM55.42,112.38c.2-.76-.18-1.1-.62-1.1s-1.06.7-1.4,1.64l2.02-.54ZM49.54,111.32h-1.08v-.5l1.34-.18,1.12-1.7h.62l-.6,1.7h1.58l-.2.68h-1.62l-1.58,4.42c.72-.12,1.68-.8,2.12-1.42h.3c-.56,1.48-2.02,2.52-3.24,2.52-.42,0-.64-.4-.48-.8l1.72-4.72ZM47.34,111.08c.12-.44-.16-.68-.4-.68-.94,0-2.06.86-2.52,2.04h.3c.3-.44.82-.92,1.32-1l-1.8,4.7c-.16.44.16.68.38.68.9,0,1.94-.86,2.4-2.04h-.3c-.3.44-.82.92-1.32,1l1.94-4.7ZM48.26,108.48c0,.4-.34.74-.74.74s-.74-.34-.74-.74.32-.74.74-.74.74.34.74.74ZM38.16,111.56c-.9,0-2.52,1.96-2.52,3.42,0,.44.14.64.38.64.38,0,1.22-.8,1.76-1.46l.94-2.52c-.18-.06-.36-.08-.56-.08ZM40.6,110.14l-.5-.04-.56.56h-.1c-2.38,0-4.92,2.96-4.92,5.28,0,.54.3.9.88.9.67,0,1.31-.91,2.03-1.91l.11-.15-.04.38c-.1,1.08.24,1.68.8,1.68.66,0,1.26-1.02,1.72-2.04h-.3c-.32.46-.62.74-.86.74s-.42-.44,0-1.4l1.74-4ZM30.52,116.62c-.86.34-1.46.74-1.46,1.36,0,.58.54.82,1.66.82,1.5,0,2.32-.44,2.32-1.02,0-.26-.34-.38-1.24-.68-.58-.18-1-.34-1.28-.48ZM31.52,114.16c-.4,0-.54-.34-.54-.7,0-1.16.56-2.6,1.46-2.6.4,0,.54.34.54.7-.02,1.18-.58,2.6-1.46,2.6ZM32.28,116.04c1.1.34,1.78.6,1.78,1.36,0,.98-1.8,2.14-3.98,2.12-1.26,0-2.34-.34-2.34-1.16s.72-1.42,2.48-1.94c-.24-.16-.34-.36-.34-.64,0-.48.44-.86,1.2-1.22-.74-.1-1.22-.66-1.22-1.48,0-1.26,1.04-2.7,2.68-2.7.34,0,.64.08.88.24h1.8l-.2.68h-1.06c.06.18.1.38.1.6,0,1.22-.98,2.62-2.54,2.7-.4.22-.6.52-.6.76,0,.28.33.38,1.05.59h0c.1.03.2.06.31.09ZM25.94,112.62c.78,0,.8.34.68,1.2h.44l1.04-2.84h-.44c-.38.68-.7,1.2-1.54,1.2h-1.72l.84-2.34c.3-.84.44-1,1.52-1h.76c1.1,0,1.22.3,1.22,1.46h.44l.36-1.94h-6.52l-.12.36c1.26.26,1.38.38.8,2l-1.3,3.5c-.6,1.62-.84,1.74-2.3,2l-.1.38h7.24l1.3-2.06h-.5c-.84.82-1.68,1.58-3.32,1.58-1.8,0-1.77-.09-1.23-1.58.03-.1.07-.2.11-.31l.6-1.6h1.74v-.02Z"/>
  <path class="st3" d="M31.92,95.48c.4,0,.74-.34.74-.74s-.34-.74-.74-.74c-.42,0-.74.34-.74.74,0,.42.32.74.74.74ZM33.66,103.08c1.56.02,4.18-2.86,4.18-5.08,0-.96-.24-1.32-.92-1.32-.84,0-1.62.9-2.4,1.98l1.68-4.5-.1-.14-2.06.24v.24l.4.3c.35.27.25.54-.05,1.34l-.03.08-1.82,4.76c-.16.4-.34.88-.34,1,0,.56.76,1.1,1.46,1.1ZM55.18,95.96l1.86-1.7v-.24h-1.24l-1.1,1.94h.48ZM55.3,100.82h.4c-.76,1.42-1.68,2.28-2.56,2.26-.76,0-1.24-.54-1.24-1.56,0-2.16,1.76-4.86,3.3-4.86.88,0,1.66.66,1.02,2.18l-3.26,1.08c-.06.28-.1.6-.1.9,0,.74.28,1.08.84,1.08s1.1-.48,1.6-1.08ZM55.2,98.66c.2-.76-.18-1.1-.62-1.1-.48,0-1.08.7-1.4,1.64l2.02-.54ZM49.3,97.6h-1.08v-.5l1.34-.18,1.12-1.7h.62l-.6,1.7h1.58l-.2.68h-1.62l-1.58,4.42c.72-.12,1.68-.8,2.12-1.42h.3c-.56,1.48-2.02,2.52-3.24,2.52-.42,0-.64-.4-.48-.8l1.72-4.72ZM47.66,98.12c.22-.76.1-1.44-.48-1.44-.72,0-.95.48-1.65,1.96l-.05.1v-.88c0-.62-.2-1.18-.76-1.18-.66,0-1.26,1.02-1.72,2.04h.3c.32-.46.62-.74.84-.74.28,0,.44.44,0,1.4l-1.28,2.84c-.24.54.02.88.54.88.32,0,.46-.08.6-.42l1.26-3.32c.36-.44.68-.82,1.08-1.24h1.32ZM41.32,98.66c.2-.76-.18-1.1-.62-1.1-.48,0-1.06.7-1.4,1.64l2.02-.54ZM41.82,100.82h-.4c-.5.6-1.06,1.08-1.6,1.08s-.84-.34-.84-1.08c0-.3.04-.62.1-.9l3.26-1.08c.64-1.52-.12-2.18-1.02-2.18-1.54,0-3.3,2.7-3.3,4.86,0,1.02.48,1.56,1.24,1.56.88.02,1.8-.84,2.56-2.26ZM33.42,101.58c0,.26.46.56.78.56,1.3,0,2.52-2.34,2.5-3.64,0-.44-.22-.62-.52-.62-.48,0-1.36.72-1.92,1.4l-.52,1.4c-.18.46-.32.82-.32.9ZM31.32,96.68c.24,0,.52.24.4.68l-1.92,4.7c.5-.08,1.02-.56,1.32-1h.3c-.46,1.18-1.5,2.04-2.4,2.04-.24,0-.56-.24-.4-.68l1.8-4.7c-.5.08-1.02.56-1.32,1h-.3c.46-1.18,1.58-2.04,2.52-2.04ZM23.02,94.6h4.3l-.12.38c-1.46.26-1.7.38-2.3,2l-1.28,3.52c-.62,1.68-.46,1.88.64,1.88,1.36,0,2.25-.99,3.03-1.85.06-.06.11-.13.17-.19h.5l-1.42,2.52h-6.54l.12-.36c1.44-.26,1.68-.38,2.28-2l1.3-3.54c.58-1.62.46-1.74-.8-2l.12-.36Z"/>
</svg>