<svg width="43" height="42" viewBox="0 0 43 42" fill="none" xmlns="http://www.w3.org/2000/svg">
<path d="M37.37 0H5.37C2.61 0 0.369995 2.24 0.369995 5V37C0.369995 39.76 2.61 42 5.37 42H37.37C40.13 42 42.37 39.76 42.37 37V5C42.37 2.24 40.13 0 37.37 0ZM21.37 3.43C24.27 3.43 25.36 5.16 25.74 7.07C25.49 7.28 25.24 7.51 24.99 7.76L21.37 11.39L17.81 7.83C17.54 7.56 17.27 7.32 17 7.08C17.37 5.17 18.46 3.43 21.36 3.43H21.37ZM8.93999 8.58C11.75 5.77 14.44 7.64 16.22 9.42L19.77 12.98L18.55 14.2C18.55 14.2 8.75999 14.22 8.42999 14.25C7.34999 12.63 6.88999 10.63 8.93999 8.58ZM3.70999 21C3.70999 17.24 6.92999 16.45 9.44999 16.45H16.31C16.31 16.45 7.69999 25.1 7.46999 25.37C5.50999 24.97 3.70999 23.82 3.70999 21.01V21ZM8.94999 33.44C6.13999 30.64 8.00999 27.94 9.78999 26.16L26.59 9.36C28.37 7.59 31.21 5.87 33.87 8.52C36.53 11.18 34.81 14.02 33.03 15.8L16.23 32.6C14.45 34.38 11.75 36.24 8.94999 33.44ZM21.37 38.67C18.57 38.67 17.42 36.89 17.01 34.94C17.28 34.71 17.54 34.46 17.81 34.19L21.37 30.64L24.99 34.26C25.24 34.51 25.48 34.72 25.73 34.93C25.33 36.88 24.17 38.68 21.37 38.68V38.67ZM33.87 33.5C31.21 36.16 28.37 34.44 26.59 32.66L22.96 29.04L24.19 27.81C24.19 27.81 33.94 27.79 34.3 27.76C35.4 29.43 35.85 31.52 33.87 33.5ZM33.21 25.56H26.45C26.45 25.56 35.09 16.88 35.3 16.64C37.22 17.02 38.95 18.11 38.95 21C38.95 24.96 35.73 25.56 33.21 25.56Z" fill="white"/>
</svg>
